<?xml version="1.0" encoding="utf-8"?><svg width="24" height="24" fill="none" xmlns="http://www.w3.org/2000/svg" viewBox="0 0 24 24"><path d="M12 2c-.96 0-1.88.14-2.75.39A4.986 4.986 0 005 0C2.24 0 0 2.24 0 5c0 1.8.96 3.37 2.39 4.25C2.14 10.12 2 11.04 2 12c0 5.52 4.48 10 10 10s10-4.48 10-10S17.52 2 12 2zm0 18c-4.41 0-8-3.59-8-8 0-.05.01-.1.01-.15 2.6-.98 4.68-2.99 5.74-5.55a9.942 9.942 0 009.92 3.46c.21.71.33 1.46.33 2.24 0 4.41-3.59 8-8 8z" fill="#333"/><path d="M9 14.25a1.25 1.25 0 100-2.5 1.25 1.25 0 000 2.5zM15 14.25a1.25 1.25 0 100-2.5 1.25 1.25 0 000 2.5z" fill="#333"/></svg>