<?xml version="1.0" encoding="utf-8"?><svg width="24" height="25" fill="none" xmlns="http://www.w3.org/2000/svg" viewBox="0 0 24 25"><path d="M21.97 14.52v-.04C23.21 13.38 24 11.78 24 10c0-3.31-2.69-6-6-6-.26 0-.52.02-.78.06a5.98 5.98 0 00-10.44 0C6.52 4.02 6.26 4 6 4c-3.31 0-6 2.69-6 6 0 1.78.79 3.38 2.02 4.48v.04A6.009 6.009 0 000 19c0 3.31 2.69 6 6 6 1.39 0 2.67-.48 3.69-1.28.74.18 1.51.28 2.31.28s1.57-.1 2.31-.28c1.02.8 2.3 1.28 3.69 1.28 3.31 0 6-2.69 6-6 0-1.78-.79-3.38-2.03-4.48zM12 22c-4.41 0-8-3.59-8-8 0-3.72 2.56-6.85 6-7.74v.05c0 3.34 2.72 6.06 6.06 6.06 1.26 0 2.45-.39 3.45-1.09.31.86.49 1.77.49 2.72 0 4.41-3.59 8-8 8z" fill="#333"/><path d="M9 16.25a1.25 1.25 0 100-2.5 1.25 1.25 0 000 2.5zM15 16.25a1.25 1.25 0 100-2.5 1.25 1.25 0 000 2.5z" fill="#333"/></svg>