<?xml version="1.0" encoding="utf-8"?><svg width="14" height="14" fill="none" xmlns="http://www.w3.org/2000/svg" viewBox="0 0 14 14"><path d="M10.26 9.029H9.61l-.23-.222a5.335 5.335 0 001.215-4.382C10.21 2.143 8.306.32 6.01.042A5.339 5.339 0 00.042 6.01c.28 2.297 2.101 4.201 4.383 4.587a5.334 5.334 0 004.382-1.214l.222.23v.648l3.488 3.488a.867.867 0 001.222 0 .867.867 0 000-1.223l-3.48-3.496zm-4.924 0a3.688 3.688 0 01-3.693-3.693 3.688 3.688 0 013.693-3.693 3.688 3.688 0 013.693 3.693 3.688 3.688 0 01-3.693 3.693z" fill="#666"/></svg>