<?xml version="1.0" encoding="utf-8"?><svg width="24" height="24" fill="none" xmlns="http://www.w3.org/2000/svg" viewBox="0 0 24 24"><path fill-rule="evenodd" clip-rule="evenodd" d="M9.165 3.554c-5.705 1.819-8.05 9.068-4.451 13.761 3.767 4.913 10.77 4.913 14.537 0 .873-1.139 1.749-3.447 1.749-4.61 0-.604-.06-.648-.876-.648-.858 0-.88.02-1.02.954-.211 1.396-1.082 3.107-2.078 4.08-2.801 2.736-7.325 2.728-10.09-.02-2.774-2.755-2.774-7.273 0-10.028.482-.48 1.434-1.134 2.116-1.455 2.298-1.082 5.69-.657 7.385.924l.515.481-1.18 1.188L14.59 9.37H21V3l-1.323 1.301-1.324 1.301-1.162-.83c-2.264-1.615-5.323-2.08-8.026-1.218zm1.916 6.711v2.688h1.803V7.577h-1.803v2.688zm0 5.376v.896h1.803v-1.792h-1.803v.896z" fill="#333"/></svg>