<?xml version="1.0" encoding="utf-8"?><svg width="24" height="24" fill="none" xmlns="http://www.w3.org/2000/svg" viewBox="0 0 24 24"><path d="M18.39 14.56C16.71 13.7 14.53 13 12 13s-4.71.7-6.39 1.56A2.97 2.97 0 004 17.22V18c0 1.1.9 2 2 2h12c1.1 0 2-.9 2-2v-.78c0-1.12-.61-2.15-1.61-2.66zM10 12h4c1.66 0 3-1.34 3-3 0-.73-.27-1.4-.71-1.92.13-.33.21-.7.21-1.08a3 3 0 00-1.86-2.77A3.458 3.458 0 0012 2c-1.06 0-2 .48-2.64 1.23A3 3 0 007.5 6c0 .38.08.75.21 1.08C7.27 7.6 7 8.27 7 9c0 1.66 1.34 3 3 3z" fill="#333"/></svg>