<?xml version="1.0" standalone="no"?>
<!DOCTYPE svg PUBLIC "-//W3C//DTD SVG 1.1//EN" "http://www.w3.org/Graphics/SVG/1.1/DTD/svg11.dtd" >
<svg xmlns="http://www.w3.org/2000/svg">
<metadata>Generated by IcoMoon</metadata>
<defs>
<font id="icomoon" horiz-adv-x="1024">
<font-face units-per-em="1024" ascent="960" descent="-64" />
<missing-glyph horiz-adv-x="1024" />
<glyph unicode="&#x20;" horiz-adv-x="512" d="" />
<glyph unicode="&#xe900;" glyph-name="abc" d="M309.333 320c-17.493 0-32 14.507-32 32v32h-85.333v-32c0-17.493-14.507-32-32-32s-32 14.507-32 32v181.333c0 23.467 19.2 42.667 42.667 42.667h128c23.467 0 42.667-19.2 42.667-42.667v-181.333c0-17.493-14.507-32-32-32zM277.333 512h-85.333v-64h85.333v64zM576 448c23.467 0 42.667-19.2 42.667-42.667v-42.667c0-23.467-19.2-42.667-42.667-42.667h-128c-23.467 0-42.667 19.2-42.667 42.667v170.667c0 23.467 19.2 42.667 42.667 42.667h128c23.467 0 42.667-19.2 42.667-42.667v-42.667c0-23.467-19.2-42.667-42.667-42.667zM469.333 512v-32h85.333v32h-85.333zM554.667 416h-85.333v-32h85.333v32zM896 522.667c0-17.493-14.507-32-32-32-6.622 0.034-13.077 2.099-18.492 5.914-5.419 3.814-9.536 9.195-11.802 15.42h-87.040v-128h87.040c4.267 12.373 16.213 21.333 30.293 21.333 17.493 0 32-14.507 32-32v-10.667c0-23.467-19.2-42.667-42.667-42.667h-128c-23.467 0-42.667 19.2-42.667 42.667v170.667c0 23.467 19.2 42.667 42.667 42.667h128c23.467 0 42.667-19.2 42.667-42.667v-10.667z" />
<glyph unicode="&#xe901;" glyph-name="access-alarm" d="M677.12 309.333l-143.787 85.333v193.279c0 17.067-13.653 30.72-30.72 30.72h-2.56c-17.067 0-30.72-13.653-30.72-30.72v-201.385c0-14.933 7.68-29.013 20.907-36.693l155.733-93.44c14.507-8.533 33.28-4.267 41.813 10.24 8.96 14.933 4.267 34.133-10.667 42.667zM903.68 746.239l-131.413 109.227c-17.92 14.933-44.8 12.8-60.16-5.547-14.933-17.92-12.373-44.8 5.547-60.16l130.987-109.227c17.92-14.933 44.8-12.8 60.16 5.547 3.618 4.285 6.353 9.241 8.055 14.584 1.698 5.343 2.33 10.97 1.856 16.557-0.478 5.588-2.048 11.026-4.629 16.006-2.577 4.979-6.114 9.401-10.402 13.013zM174.933 680.532l130.987 109.227c18.347 15.36 20.907 42.24 5.547 60.16-3.537 4.316-7.896 7.887-12.824 10.506s-10.327 4.233-15.884 4.749c-5.557 0.516-11.161-0.077-16.486-1.743s-10.268-4.374-14.54-7.965l-131.413-109.227c-4.289-3.612-7.825-8.034-10.404-13.013s-4.151-10.418-4.627-16.006c-0.475-5.587 0.155-11.214 1.856-16.557s4.438-10.3 8.055-14.584c14.933-18.347 41.813-20.48 59.733-5.547zM512 789.332c-101.849-0.006-199.524-40.471-271.538-112.492s-112.468-169.704-112.462-271.549c0.006-101.85 40.471-199.526 112.492-271.539s169.702-112.469 271.551-112.461c50.432 0 100.365 9.937 146.957 29.239s88.922 47.59 124.582 83.251c35.657 35.661 63.94 77.999 83.238 124.591 19.294 46.592 29.227 96.529 29.222 146.961-0.004 50.428-9.937 100.365-29.239 146.956s-47.59 88.923-83.251 124.581c-35.665 35.657-77.999 63.942-124.591 83.238s-96.529 29.226-146.961 29.224zM512 106.667c-164.694 0-298.667 133.973-298.667 298.667 0 164.692 133.973 298.665 298.667 298.665s298.667-133.973 298.667-298.665c0-164.693-133.973-298.667-298.667-298.667z" />
<glyph unicode="&#xe902;" glyph-name="accessibility-new" d="M885.333 661.76c-5.973 23.467-29.44 37.12-52.907 32-101.547-22.613-214.613-32.427-320.427-32.427s-218.879 9.813-320.426 32.427c-23.467 5.12-46.933-8.533-52.907-32-5.973-23.893 8.533-48.213 32-53.76 68.693-15.36 142.933-26.027 213.333-32v-512c0-23.467 19.2-42.667 42.666-42.667s42.667 19.2 42.667 42.667v213.333h85.333v-213.333c0-23.467 19.2-42.667 42.667-42.667s42.667 19.2 42.667 42.667v512c70.4 5.973 144.64 16.64 212.907 32 23.893 5.547 38.4 29.867 32.427 53.76zM512 704c46.933 0 85.333 38.4 85.333 85.333s-38.4 85.333-85.333 85.333c-46.933 0-85.333-38.4-85.333-85.333s38.4-85.333 85.333-85.333z" />
<glyph unicode="&#xe903;" glyph-name="accessible-forward" d="M768 680.958c47.13 0 85.333 38.205 85.333 85.333s-38.204 85.333-85.333 85.333c-47.13 0-85.333-38.205-85.333-85.333s38.204-85.333 85.333-85.333zM640 234.667h-85.333c0-70.4-57.6-128-128-128s-128 57.6-128 128c0 70.4 57.6 128 128 128v85.333c-117.76 0-213.333-95.573-213.333-213.333s95.573-213.333 213.333-213.333c117.76 0 213.333 95.573 213.333 213.333zM768 384h-79.36l71.253 156.585c26.027 56.747-15.787 120.747-78.933 120.747h-221.867c-34.56 0-65.707-20.053-79.787-51.2l-11.947-32.427c-8.96-23.893 4.693-49.918 29.013-56.745 20.907-5.973 42.667 4.693 51.2 24.745l12.8 30.293h94.293l-78.080-174.932c-25.6-56.747 16.64-123.733 78.933-123.733h212.48v-170.667c0-23.467 19.2-42.667 42.667-42.667s42.667 19.2 42.667 42.667v192c0 46.933-38.4 85.333-85.333 85.333z" />
<glyph unicode="&#xe904;" glyph-name="access-time" d="M511.573 874.667c-235.52 0-426.24-191.147-426.24-426.667s190.72-426.667 426.24-426.667c235.947 0 427.093 191.147 427.093 426.667s-191.147 426.667-427.093 426.667zM512 106.667c-188.587 0-341.333 152.747-341.333 341.333s152.747 341.333 341.333 341.333c188.587 0 341.333-152.747 341.333-341.333s-152.747-341.333-341.333-341.333zM502.613 661.333h-2.56c-17.067 0-30.72-13.653-30.72-30.72v-201.387c0-14.933 7.68-29.013 20.907-36.693l177.067-106.24c14.507-8.533 33.28-4.267 41.813 10.24 2.142 3.456 3.567 7.305 4.19 11.324 0.623 4.015 0.431 8.119-0.563 12.058-0.994 3.942-2.773 7.642-5.231 10.884-2.453 3.238-5.538 5.952-9.062 7.974l-165.12 98.133v193.707c0 17.067-13.653 30.72-30.72 30.72z" />
<glyph unicode="&#xe905;" glyph-name="account-balance" d="M170.667 469.338v-170.667c0-35.413 28.587-64 64-64s64 28.587 64 64v170.667c0 35.413-28.587 63.998-64 63.998s-64-28.585-64-63.998zM426.667 469.338v-170.667c0-35.413 28.587-64 64-64s64 28.587 64 64v170.667c0 35.413-28.587 63.998-64 63.998s-64-28.585-64-63.998zM149.333 21.338h682.667c35.413 0 64 28.587 64 64s-28.587 64-64 64h-682.667c-35.413 0-64-28.587-64-64s28.587-64 64-64zM682.667 469.338v-170.667c0-35.413 28.587-64 64-64s64 28.587 64 64v170.667c0 35.413-28.587 63.998-64 63.998s-64-28.585-64-63.998zM450.987 896.429l-337.067-177.493c-17.493-8.96-28.587-27.307-28.587-46.933 0-29.44 23.893-53.333 53.333-53.333h704.427c29.013 0 52.907 23.893 52.907 53.333 0 19.627-11.093 37.973-28.587 46.933l-337.067 177.493c-24.747 13.227-54.613 13.227-79.36 0z" />
<glyph unicode="&#xe906;" glyph-name="account-balance-wallet" d="M426.667 277.333v341.333c0 22.632 8.99 44.337 24.994 60.34s37.709 24.994 60.339 24.994h384v42.667c0 46.933-38.4 85.333-85.333 85.333h-597.333c-22.632 0-44.337-8.99-60.34-24.994s-24.994-37.708-24.994-60.34v-597.333c0-22.63 8.99-44.335 24.994-60.339s37.708-24.994 60.34-24.994h597.333c46.933 0 85.333 38.4 85.333 85.333v42.667h-384c-22.63 0-44.335 8.99-60.339 24.994s-24.994 37.709-24.994 60.339zM554.667 618.667c-23.467 0-42.667-19.2-42.667-42.667v-256c0-23.467 19.2-42.667 42.667-42.667h384v341.333h-384zM682.667 384c-35.413 0-64 28.587-64 64s28.587 64 64 64c35.413 0 64-28.587 64-64s-28.587-64-64-64z" />
<glyph unicode="&#xe907;" glyph-name="account-circle" d="M512 874.667c-235.52 0-426.667-191.147-426.667-426.667s191.147-426.667 426.667-426.667c235.52 0 426.667 191.147 426.667 426.667s-191.147 426.667-426.667 426.667zM512 704c82.347 0 149.333-66.987 149.333-149.333s-66.987-149.333-149.333-149.333c-82.347 0-149.333 66.987-149.333 149.333s66.987 149.333 149.333 149.333zM512 106.667c-86.613 0-189.013 34.987-261.973 122.88 74.735 58.637 166.981 90.505 261.973 90.505s187.238-31.868 261.973-90.505c-72.96-87.893-175.36-122.88-261.973-122.88z" />
<glyph unicode="&#xe908;" glyph-name="add" d="M768 405.333h-213.333v-213.333c0-23.467-19.2-42.667-42.667-42.667s-42.667 19.2-42.667 42.667v213.333h-213.333c-23.467 0-42.667 19.2-42.667 42.667s19.2 42.667 42.667 42.667h213.333v213.333c0 23.467 19.2 42.667 42.667 42.667s42.667-19.2 42.667-42.667v-213.333h213.333c23.467 0 42.667-19.2 42.667-42.667s-19.2-42.667-42.667-42.667z" />
<glyph unicode="&#xe909;" glyph-name="admin-panel-settings" d="M725.333 490.662c14.507 0 28.587-1.707 42.667-3.84v149.762c0 34.133-20.053 64.853-51.2 78.080l-234.667 102.4c-21.76 9.387-46.507 9.387-68.267 0l-234.667-102.4c-31.147-13.653-51.2-44.373-51.2-78.080v-153.602c0-193.707 136.533-375.040 320-418.987 23.467 5.547 46.080 13.653 68.267 23.467-29.44 41.813-46.933 92.587-46.933 147.2 0 141.227 114.773 256 256 256zM725.333 405.333c-94.293 0-170.667-76.373-170.667-170.667s76.373-170.667 170.667-170.667c94.293 0 170.667 76.373 170.667 170.667s-76.373 170.667-170.667 170.667zM725.333 346.453c26.453 0 47.787-21.76 47.787-47.787s-21.76-47.787-47.787-47.787c-26.027 0-47.787 21.76-47.787 47.787s21.333 47.787 47.787 47.787zM725.333 117.333c-39.68 0-74.24 19.627-95.573 49.92 2.133 30.72 64.427 46.080 95.573 46.080s93.44-15.36 95.573-46.080c-21.333-30.293-55.893-49.92-95.573-49.92z" />
<glyph unicode="&#xe90a;" glyph-name="airplanemode-active" d="M916.48 375.467l-340.48 200.533v234.667c0 35.413-28.587 64-64 64s-64-28.587-64-64v-234.667l-340.48-200.533c-13.653-7.68-22.187-22.613-22.187-38.4 0-29.867 28.587-51.2 57.173-43.093l305.493 89.6v-234.24l-96.427-57.6c-6.4-3.84-10.24-11.093-10.24-18.347v-24.747c0-14.080 13.227-24.32 26.453-20.907l124.587 31.147 19.627 5.12 16.213-3.84 17.92-4.693 109.653-27.733c13.653-3.413 26.453 6.827 26.453 20.907v24.747c0 7.68-3.84 14.507-10.24 18.347l-96 57.6v234.667l305.493-89.6c28.587-8.533 57.173 12.8 57.173 42.667 0 15.787-8.533 30.72-22.187 38.4z" />
<glyph unicode="&#xe90b;" glyph-name="airplanemode-inactive" d="M938.662 337.067c0-29.867-28.587-51.2-57.173-43.093l-134.4 39.68-299.093 299.093v177.92c0 35.413 28.587 64 64 64s64-28.587 64-64v-234.667l340.48-200.533c13.653-7.68 22.187-22.613 22.187-38.4zM575.996 384l-426.241 426.24c-7.978 7.978-18.798 12.46-30.080 12.46s-22.102-4.482-30.080-12.46c-7.978-7.978-12.46-18.798-12.46-30.080s4.482-22.102 12.46-30.080l241.92-241.92-224-132.693c-13.653-7.68-22.187-22.613-22.187-38.4 0-29.867 28.587-51.2 57.173-43.093l305.494 89.6v-234.24l-96.428-57.6c-6.4-3.84-10.24-11.093-10.24-18.347v-24.747c0-14.080 13.227-24.32 26.453-20.907l124.588 31.147 19.627 5.12 16.213-3.84 17.92-4.693 109.653-27.733c13.653-3.413 26.453 6.827 26.453 20.907v24.747c0 7.68-3.84 14.507-10.24 18.347l-96 57.6v113.92l237.653-237.653c7.979-7.979 18.799-12.459 30.080-12.459s22.101 4.48 30.080 12.459c7.979 7.979 12.459 18.799 12.459 30.080s-4.48 22.101-12.459 30.080l-297.813 298.24z" />
<glyph unicode="&#xe90c;" glyph-name="alarm" d="M677.12 309.333l-143.787 85.333v193.279c0 17.067-13.653 30.72-30.72 30.72h-2.56c-17.067 0-30.72-13.653-30.72-30.72v-201.385c0-14.933 7.68-29.013 20.907-36.693l155.733-93.44c14.507-8.533 33.28-4.267 41.813 10.24 8.96 14.933 4.267 34.133-10.667 42.667zM903.68 746.239l-131.413 109.227c-17.92 14.933-44.8 12.8-60.16-5.547-14.933-17.92-12.373-44.8 5.547-60.16l130.987-109.227c17.92-14.933 44.8-12.8 60.16 5.547 3.618 4.285 6.353 9.241 8.055 14.584 1.698 5.343 2.33 10.97 1.856 16.557-0.478 5.588-2.048 11.026-4.629 16.006-2.577 4.979-6.114 9.401-10.402 13.013zM174.933 680.532l130.987 109.227c18.347 15.36 20.907 42.24 5.547 60.16-3.537 4.316-7.896 7.887-12.824 10.506s-10.327 4.233-15.884 4.749c-5.557 0.516-11.161-0.077-16.486-1.743s-10.268-4.374-14.54-7.965l-131.413-109.227c-4.289-3.612-7.825-8.034-10.404-13.013s-4.151-10.418-4.627-16.006c-0.475-5.587 0.155-11.214 1.856-16.557s4.438-10.3 8.055-14.584c14.933-18.347 41.813-20.48 59.733-5.547zM512 789.332c-101.849-0.006-199.524-40.471-271.538-112.492s-112.468-169.704-112.462-271.549c0.006-101.85 40.471-199.526 112.492-271.539s169.702-112.469 271.551-112.461c50.432 0 100.365 9.937 146.957 29.239s88.922 47.59 124.582 83.251c35.657 35.661 63.94 77.999 83.238 124.591 19.294 46.592 29.227 96.529 29.222 146.961-0.004 50.428-9.937 100.365-29.239 146.956s-47.59 88.923-83.251 124.581c-35.665 35.657-77.999 63.942-124.591 83.238s-96.529 29.226-146.961 29.224zM512 106.667c-164.694 0-298.667 133.973-298.667 298.667 0 164.692 133.973 298.665 298.667 298.665s298.667-133.973 298.667-298.665c0-164.693-133.973-298.667-298.667-298.667z" />
<glyph unicode="&#xe90d;" glyph-name="alternate-email" d="M542.72 873.385c-61.035 4.443-122.313-4.308-179.665-25.658s-109.436-54.799-152.71-98.072c-43.273-43.273-76.722-95.357-98.072-152.71s-30.101-118.631-25.658-179.665c15.36-225.707 212.48-395.947 438.612-395.947h157.44c23.467 0 42.667 19.2 42.667 42.667s-19.2 42.667-42.667 42.667h-156.587c-159.145 0-305.065 103.253-344.745 257.28-63.573 247.465 166.827 478.292 414.292 414.292 154.453-39.253 257.707-185.173 257.707-344.319v-46.933c0-33.707-30.293-66.987-64-66.987s-64 33.28-64 66.987v53.333c0 107.092-75.947 203.519-181.76 218.452-33.664 5.006-68.041 1.897-100.262-9.068-32.22-10.964-61.356-29.468-84.98-53.969s-41.055-54.292-50.839-86.893c-9.784-32.597-11.639-67.063-5.411-100.523 7.483-40.32 26.437-77.623 54.589-107.443 28.152-29.815 64.308-50.88 104.129-60.663 78.507-18.347 153.173 6.827 202.24 56.747 37.973-52.053 113.92-79.36 183.467-51.627 57.173 22.613 92.16 81.067 92.16 142.507v46.507c0 226.559-170.24 423.679-395.947 439.039zM512 320c-70.827 0-127.999 57.173-127.999 128s57.172 127.999 127.999 127.999c70.827 0 128-57.172 128-127.999s-57.173-128-128-128z" />
<glyph unicode="&#xe90e;" glyph-name="anchor" d="M554.667 576v50.347c49.493 17.92 85.333 64.853 85.333 120.32 0 70.4-57.6 128-128 128s-128-57.6-128-128c0-55.467 35.84-102.4 85.333-120.32v-50.347h-85.333c-23.467 0-42.667-19.2-42.667-42.667s19.2-42.667 42.667-42.667h85.333v-380.587c-94.72 14.080-195.84 71.68-236.8 143.787l48.64 48.64c9.387 9.387 8.107 24.32-2.133 32l-116.907 87.893c-3.169 2.377-6.938 3.823-10.884 4.181-3.946 0.354-7.913-0.397-11.456-2.167s-6.524-4.493-8.607-7.863c-2.083-3.371-3.186-7.253-3.186-11.217v-85.333c0-165.547 209.92-298.667 384-298.667s384 133.12 384 298.667v85.333c0 3.964-1.105 7.846-3.187 11.217s-5.060 6.093-8.606 7.863c-3.541 1.771-7.509 2.522-11.456 2.167-3.947-0.358-7.714-1.805-10.884-4.181l-116.907-87.467c-10.24-7.68-11.52-23.040-2.133-32l48.64-48.64c-40.96-72.107-142.080-129.707-236.8-143.787v380.16h85.333c23.467 0 42.667 19.2 42.667 42.667s-19.2 42.667-42.667 42.667h-85.333zM512 789.333c23.467 0 42.667-19.2 42.667-42.667s-19.2-42.667-42.667-42.667c-23.467 0-42.667 19.2-42.667 42.667s19.2 42.667 42.667 42.667z" />
<glyph unicode="&#xe90f;" glyph-name="api" d="M554.667 405.333c-23.893-23.893-61.867-23.893-85.333-0.427v0.427c-23.467 23.467-23.467 61.44 0 84.907v0.427c23.467 23.467 61.44 23.467 84.907 0h0.427c23.467-23.467 23.467-61.867 0-85.333zM512 704.002l90.453-90.453 106.667 106.667-136.533 136.533c-33.28 33.28-87.467 33.28-120.747 0l-136.535-136.533 106.667-106.667 90.028 90.453zM255.998 448l90.453 90.455-106.667 106.667-136.533-136.535c-33.28-33.28-33.28-87.467 0-120.747l136.533-136.533 106.667 106.667-90.453 90.027zM768 448l-90.453-90.453 106.667-106.667 136.533 136.533c33.28 33.28 33.28 87.467 0 120.747l-136.533 136.535-106.667-106.667 90.453-90.028zM512 192l-90.455 90.453-106.667-106.667 136.535-136.533c33.28-33.28 87.467-33.28 120.747 0l136.533 136.533-106.667 106.667-90.027-90.453z" />
<glyph unicode="&#xe910;" glyph-name="apple" d="M727.462 94.72c-41.813-40.533-87.467-34.133-131.413-14.933-46.507 19.627-89.173 20.48-138.24 0-61.439-26.453-93.866-18.773-130.559 14.933-208.213 214.613-177.493 541.44 58.88 553.387 57.599-2.987 97.706-31.573 131.412-34.133 50.347 10.24 98.56 39.68 152.32 35.84 64.427-5.12 113.067-30.72 145.067-76.8-133.12-79.787-101.547-255.147 20.48-304.213-24.32-64-55.893-127.573-108.373-174.507l0.427 0.427zM513.276 650.667c-6.4 95.147 70.827 173.653 159.573 181.333 12.373-110.080-99.84-192-159.573-181.333z" />
<glyph unicode="&#xe911;" glyph-name="arrow-back" d="M810.662 490.667h-476.586l208.212 208.212c16.64 16.64 16.64 43.947 0 60.587-3.947 3.956-8.636 7.093-13.798 9.235-5.158 2.141-10.692 3.243-16.282 3.243-5.585 0-11.119-1.102-16.282-3.243s-9.852-5.279-13.798-9.235l-281.172-281.172c-3.955-3.951-7.093-8.636-9.234-13.798s-3.243-10.697-3.243-16.282c0-5.589 1.102-11.123 3.243-16.286 2.141-5.158 5.279-9.847 9.234-13.794l281.172-281.173c3.951-3.951 8.64-7.087 13.803-9.225 5.158-2.138 10.692-3.238 16.277-3.238 5.589 0 11.119 1.101 16.282 3.238 5.158 2.138 9.847 5.274 13.798 9.225 3.951 3.947 7.083 8.64 9.225 13.798 2.138 5.163 3.234 10.692 3.234 16.282 0 5.585-1.097 11.115-3.234 16.277-2.142 5.163-5.274 9.852-9.225 13.803l-208.212 208.213h476.586c23.467 0 42.667 19.2 42.667 42.667s-19.2 42.667-42.667 42.667z" />
<glyph unicode="&#xe912;" glyph-name="arrow-back-ios" d="M709.12 832.425c-4.954 4.967-10.837 8.908-17.318 11.596s-13.427 4.073-20.442 4.073c-7.014 0-13.961-1.384-20.442-4.073-6.477-2.688-12.365-6.629-17.318-11.596l-354.56-354.558c-3.955-3.951-7.093-8.636-9.234-13.798s-3.243-10.697-3.243-16.282c0-5.589 1.102-11.123 3.243-16.286 2.141-5.158 5.279-9.847 9.234-13.794l354.56-354.56c20.907-20.907 54.613-20.907 75.52 0s20.907 54.613 0 75.52l-308.907 309.333 309.333 309.332c20.48 20.48 20.48 54.613-0.427 75.093z" />
<glyph unicode="&#xe913;" glyph-name="arrow-back-ios-new" d="M720.209 837.118c-4.954 4.967-10.837 8.907-17.318 11.596s-13.427 4.073-20.442 4.073c-7.014 0-13.961-1.384-20.442-4.073-6.477-2.689-12.365-6.629-17.318-11.596l-358.826-358.829c-3.955-3.947-7.093-8.636-9.234-13.794-2.141-5.163-3.243-10.697-3.243-16.286 0-5.585 1.102-11.119 3.243-16.282 2.141-5.158 5.279-9.847 9.234-13.798l358.826-358.827c20.907-20.907 54.613-20.907 75.52 0s20.907 54.613 0 75.52l-313.173 313.173 313.6 313.602c20.48 20.907 20.48 54.613-0.427 75.52z" />
<glyph unicode="&#xe914;" glyph-name="arrow-downward" d="M469.333 746.667v-476.587l-208.212 208.213c-16.64 16.64-43.947 16.64-60.587 0-3.956-3.947-7.093-8.636-9.235-13.798-2.141-5.158-3.243-10.692-3.243-16.282s1.102-11.123 3.243-16.282c2.141-5.163 5.279-9.852 9.235-13.798l281.172-281.173c16.64-16.64 43.52-16.64 60.16 0l281.173 281.173c3.951 3.951 7.087 8.64 9.225 13.803 2.138 5.158 3.238 10.692 3.238 16.277s-1.101 11.119-3.238 16.277c-2.138 5.163-5.274 9.852-9.225 13.803-3.947 3.951-8.64 7.083-13.798 9.22-5.163 2.138-10.692 3.238-16.282 3.238-5.585 0-11.115-1.101-16.277-3.238s-9.852-5.269-13.803-9.22l-208.213-208.213v476.587c0 23.467-19.2 42.667-42.667 42.667s-42.667-19.2-42.667-42.667z" />
<glyph unicode="&#xe915;" glyph-name="arrow-drop-down" d="M371.629 460.373l110.509-110.507c16.64-16.64 43.52-16.64 60.16 0l110.507 110.507c26.88 26.88 7.68 72.96-30.293 72.96h-221.015c-37.973 0-56.747-46.080-29.867-72.96z" />
<glyph unicode="&#xe916;" glyph-name="arrow-drop-up" d="M371.629 435.627l110.509 110.505c3.947 3.956 8.636 7.093 13.794 9.235 5.163 2.141 10.697 3.243 16.286 3.243 5.585 0 11.119-1.102 16.282-3.243 5.158-2.141 9.847-5.279 13.798-9.235l110.507-110.505c26.88-26.88 7.68-72.96-30.293-72.96h-221.015c-37.973 0-56.747 46.080-29.867 72.96z" />
<glyph unicode="&#xe917;" glyph-name="arrow-forward" d="M213.333 405.333h476.587l-208.213-208.213c-16.64-16.64-16.64-43.947 0-60.587s43.52-16.64 60.16 0l281.173 281.173c3.955 3.947 7.095 8.636 9.233 13.798 2.142 5.163 3.243 10.697 3.243 16.282 0 5.589-1.101 11.123-3.243 16.282-2.138 5.163-5.278 9.852-9.233 13.798l-280.747 281.601c-3.951 3.95-8.64 7.084-13.803 9.222-5.158 2.138-10.692 3.238-16.277 3.238s-11.119-1.1-16.277-3.238c-5.163-2.138-9.852-5.271-13.803-9.222s-7.083-8.64-9.22-13.801c-2.138-5.161-3.238-10.693-3.238-16.279s1.101-11.118 3.238-16.279c2.138-5.161 5.269-9.851 9.22-13.801l207.787-208.641h-476.587c-23.467 0-42.667-19.2-42.667-42.667s19.2-42.667 42.667-42.667z" />
<glyph unicode="&#xe918;" glyph-name="arrow-forward-ios" d="M314.88 63.573c20.907-20.907 54.613-20.907 75.52 0l354.56 354.56c3.955 3.947 7.091 8.636 9.233 13.794 2.142 5.163 3.243 10.697 3.243 16.286 0 5.585-1.101 11.119-3.243 16.282-2.142 5.158-5.278 9.847-9.233 13.798l-354.56 354.558c-20.907 20.907-54.613 20.907-75.52 0s-20.907-54.613 0-75.52l308.907-309.331-309.334-309.333c-20.48-20.48-20.48-54.618 0.427-75.093z" />
<glyph unicode="&#xe919;" glyph-name="arrow-left" d="M524.373 588.371l-110.505-110.509c-3.956-3.947-7.093-8.636-9.235-13.794-2.141-5.163-3.243-10.697-3.243-16.286 0-5.585 1.102-11.119 3.243-16.282 2.141-5.158 5.279-9.847 9.235-13.798l110.505-110.507c26.88-26.88 72.96-7.68 72.96 30.293v221.015c0 37.973-46.080 56.747-72.96 29.867z" />
<glyph unicode="&#xe91a;" glyph-name="arrow-right" d="M499.627 307.627l110.507 110.507c3.955 3.947 7.095 8.636 9.233 13.798 2.142 5.163 3.243 10.697 3.243 16.282 0 5.589-1.101 11.123-3.243 16.286-2.138 5.158-5.278 9.847-9.233 13.794l-110.507 110.508c-26.88 26.453-72.96 7.68-72.96-30.293v-220.588c0-38.4 46.080-57.173 72.96-30.293z" />
<glyph unicode="&#xe91b;" glyph-name="assignment" d="M810.667 832h-178.347c-17.92 49.493-64.853 85.333-120.32 85.333s-102.4-35.84-120.32-85.333h-178.347c-46.933 0-85.333-38.4-85.333-85.333v-597.333c0-46.933 38.4-85.333 85.333-85.333h597.333c46.933 0 85.333 38.4 85.333 85.333v597.333c0 46.933-38.4 85.333-85.333 85.333zM512 832c23.467 0 42.667-19.2 42.667-42.667s-19.2-42.667-42.667-42.667c-23.467 0-42.667 19.2-42.667 42.667s19.2 42.667 42.667 42.667zM554.667 234.667h-213.333c-23.467 0-42.667 19.2-42.667 42.667s19.2 42.667 42.667 42.667h213.333c23.467 0 42.667-19.2 42.667-42.667s-19.2-42.667-42.667-42.667zM682.667 405.333h-341.333c-23.467 0-42.667 19.2-42.667 42.667s19.2 42.667 42.667 42.667h341.333c23.467 0 42.667-19.2 42.667-42.667s-19.2-42.667-42.667-42.667zM682.667 576h-341.333c-23.467 0-42.667 19.2-42.667 42.667s19.2 42.667 42.667 42.667h341.333c23.467 0 42.667-19.2 42.667-42.667s-19.2-42.667-42.667-42.667z" />
<glyph unicode="&#xe91c;" glyph-name="assistant" d="M810.667 874.667h-597.333c-46.933 0-85.333-38.4-85.333-85.333v-597.333c0-46.933 38.4-85.333 85.333-85.333h170.667l97.707-97.707c16.64-16.64 43.52-16.64 60.16 0l98.133 97.707h170.667c46.933 0 85.333 38.4 85.333 85.333v597.333c0 46.933-38.4 85.333-85.333 85.333zM592.213 410.453l-80.213-175.787-80.213 175.787-175.787 80.213 175.787 80.213 80.213 175.787 80.213-175.787 175.787-80.213-175.787-80.213z" />
<glyph unicode="&#xe91d;" glyph-name="assistant-photo" d="M614.4 704l-10.24 51.2c-3.84 19.627-21.333 34.133-41.813 34.133h-306.347c-23.467 0-42.667-19.2-42.667-42.667v-640c0-23.467 19.2-42.667 42.667-42.667s42.667 19.2 42.667 42.667v256h238.933l10.24-51.2c3.84-20.053 21.333-34.133 41.813-34.133h221.013c23.467 0 42.667 19.2 42.667 42.667v341.333c0 23.467-19.2 42.667-42.667 42.667h-196.267z" />
<glyph unicode="&#xe91e;" glyph-name="attach-file" d="M704 672v-451.413c0-89.173-65.28-168.533-154.027-177.067-23.71-2.368-47.65 0.26-70.276 7.723-22.63 7.458-43.443 19.58-61.093 35.584-17.652 16.004-31.75 35.529-41.385 57.323-9.635 21.79-14.593 45.359-14.552 69.184v527.36c0 55.893 40.107 106.667 95.573 112.213 14.874 1.556 29.909-0.035 44.13-4.667s27.311-12.204 38.413-22.222c11.106-10.019 19.981-22.26 26.048-35.931s9.19-28.464 9.169-43.42v-448c0-23.467-19.2-42.667-42.667-42.667s-42.667 19.2-42.667 42.667v373.333c0 17.493-14.507 32-32 32s-32-14.507-32-32v-367.36c0-55.893 40.107-106.667 95.573-112.213 14.874-1.557 29.909 0.034 44.13 4.668s27.311 12.203 38.413 22.221c11.106 10.018 19.981 22.259 26.048 35.93s9.19 28.467 9.169 43.422v440.747c0 89.173-65.28 168.533-154.027 177.067-23.701 2.335-47.629-0.319-70.243-7.791s-43.412-19.596-61.056-35.593c-17.644-15.997-31.744-35.51-41.39-57.286s-14.626-45.329-14.618-69.145v-523.52c0-122.453 89.6-232.107 211.627-243.627 140.373-12.8 257.707 96.427 257.707 233.813v458.667c0 17.493-14.507 32-32 32s-32-14.507-32-32z" />
<glyph unicode="&#xe91f;" glyph-name="attach-money" d="M503.467 494.933c-96.853 25.173-128 51.2-128 91.733 0 46.507 43.093 78.933 115.2 78.933 60.587 0 90.88-23.040 101.973-59.733 5.12-17.067 19.2-29.867 37.12-29.867h12.8c28.16 0 48.213 27.733 38.4 54.187-17.92 50.347-59.733 92.16-126.293 108.373v29.44c0 35.413-28.587 64-64 64s-64-28.587-64-64v-28.16c-82.773-17.92-149.333-71.68-149.333-154.027 0-98.56 81.493-147.627 200.533-176.213 106.667-25.6 128-63.147 128-102.827 0-29.44-20.907-76.373-115.2-76.373-70.4 0-106.667 25.173-120.747 61.013-6.4 16.64-20.907 28.587-38.4 28.587h-11.947c-28.587 0-48.64-29.013-37.973-55.467 24.32-59.307 81.067-94.293 145.067-107.947v-28.587c0-35.413 28.587-64 64-64s64 28.587 64 64v27.733c83.2 15.787 149.333 64 149.333 151.467 0 121.173-103.68 162.56-200.533 187.733z" />
<glyph unicode="&#xe920;" glyph-name="auto-awesome" d="M830.293 618.668l33.707 74.667 74.667 33.707c3.725 1.697 6.882 4.43 9.097 7.872s3.392 7.449 3.392 11.542c0 4.093-1.178 8.099-3.392 11.542s-5.372 6.175-9.097 7.872l-74.667 33.707-33.707 75.093c-1.694 3.724-4.429 6.882-7.872 9.097-3.439 2.214-7.445 3.392-11.541 3.392-4.092 0-8.098-1.177-11.541-3.392-3.439-2.214-6.174-5.372-7.872-9.097l-33.707-74.667-75.093-33.707c-3.725-1.697-6.882-4.43-9.097-7.872s-3.392-7.449-3.392-11.542c0-4.093 1.178-8.099 3.392-11.542s5.372-6.175 9.097-7.872l74.667-33.707 33.707-75.093c7.68-16.64 31.573-16.64 39.253 0zM490.667 554.668l-67.838 149.333c-14.933 33.28-62.72 33.28-77.653 0l-67.84-149.333-149.333-67.841c-33.28-15.36-33.28-62.72 0-77.653l149.333-67.84 67.84-149.333c15.36-33.28 62.72-33.28 77.653 0l67.838 149.333 149.333 67.84c33.28 15.36 33.28 62.72 0 77.653l-149.333 67.841zM791.040 277.333l-33.707-74.667-74.667-33.707c-3.725-1.694-6.882-4.429-9.097-7.872-2.214-3.439-3.392-7.445-3.392-11.541 0-4.092 1.178-8.098 3.392-11.541s5.372-6.174 9.097-7.872l74.667-33.707 33.707-75.093c1.698-3.725 4.433-6.882 7.872-9.097 3.443-2.214 7.45-3.392 11.541-3.392 4.096 0 8.102 1.178 11.541 3.392 3.443 2.214 6.178 5.372 7.872 9.097l33.707 74.667 75.093 33.707c3.725 1.698 6.882 4.429 9.097 7.872s3.392 7.45 3.392 11.541c0 4.096-1.178 8.102-3.392 11.541-2.214 3.443-5.372 6.178-9.097 7.872l-74.667 33.707-33.707 75.093c-1.745 3.729-4.518 6.886-7.996 9.097s-7.509 3.383-11.631 3.383c-4.117 0-8.149-1.173-11.627-3.383s-6.251-5.367-8-9.097z" />
<glyph unicode="&#xe921;" glyph-name="auto-fix-high" d="M872.533 704l20.907 45.227 45.227 20.907c3.725 1.697 6.882 4.429 9.097 7.872s3.392 7.449 3.392 11.542c0 4.093-1.178 8.099-3.392 11.541s-5.372 6.175-9.097 7.872l-45.227 20.907-20.907 44.8c-1.698 3.724-4.429 6.882-7.872 9.097s-7.45 3.392-11.541 3.392c-4.092 0-8.098-1.177-11.541-3.392s-6.174-5.372-7.872-9.097l-20.907-45.227-44.8-20.907c-3.725-1.697-6.882-4.43-9.097-7.872s-3.392-7.448-3.392-11.541c0-4.093 1.178-8.099 3.392-11.542s5.372-6.175 9.097-7.872l45.227-20.907 20.907-44.8c7.253-16.64 31.147-16.64 38.4 0zM381.867 704l20.907 45.227 45.227 20.907c3.725 1.697 6.882 4.429 9.097 7.872s3.392 7.449 3.392 11.542c0 4.093-1.178 8.099-3.392 11.541s-5.372 6.175-9.097 7.872l-45.227 20.48-20.907 45.227c-1.644 3.721-4.335 6.883-7.743 9.103s-7.389 3.402-11.457 3.402c-4.068 0-8.048-1.182-11.456-3.402s-6.099-5.383-7.744-9.103l-20.907-45.227-45.227-20.907c-3.724-1.697-6.882-4.43-9.097-7.872s-3.392-7.448-3.392-11.541c0-4.093 1.177-8.099 3.392-11.542s5.372-6.175 9.097-7.872l45.227-20.907 20.907-44.8c7.253-16.64 31.147-16.64 38.4 0zM834.133 384l-20.907-45.227-45.227-20.907c-3.725-1.698-6.882-4.429-9.097-7.872s-3.392-7.45-3.392-11.541c0-4.092 1.178-8.098 3.392-11.541s5.372-6.174 9.097-7.872l45.227-20.907 20.907-45.227c1.698-3.725 4.429-6.882 7.872-9.097s7.45-3.392 11.541-3.392c4.092 0 8.098 1.178 11.541 3.392s6.174 5.372 7.872 9.097l20.907 45.227 44.8 21.333c3.725 1.698 6.882 4.429 9.097 7.872s3.392 7.45 3.392 11.541c0 4.092-1.178 8.098-3.392 11.541s-5.372 6.174-9.097 7.872l-45.227 20.907-20.907 45.227c-7.253 16.213-31.147 16.213-38.4-0.427zM755.627 570.88l-120.747 120.747c-3.947 3.955-8.636 7.093-13.798 9.234-5.158 2.141-10.692 3.243-16.282 3.243s-11.119-1.102-16.282-3.243c-5.163-2.141-9.852-5.279-13.798-9.234l-477.013-476.587c-3.955-3.947-7.093-8.636-9.234-13.798s-3.243-10.692-3.243-16.282c0-5.589 1.102-11.123 3.243-16.282 2.141-5.163 5.279-9.852 9.234-13.798l120.747-120.747c16.64-16.64 43.52-16.64 60.16 0l476.587 476.587c17.067 16.213 17.067 43.52 0.427 60.16zM606.293 481.707l-60.16 60.16 58.88 58.88 60.16-60.16-58.88-58.88z" />
<glyph unicode="&#xe922;" glyph-name="backspace" d="M938.671 832h-640.001c-29.44 0-52.48-14.933-67.84-37.547l-215.040-322.987c-9.387-14.507-9.387-32.853 0-47.36l215.040-322.56c15.36-22.187 38.4-37.547 67.84-37.547h640.001c46.933 0 85.333 38.4 85.333 85.333v597.333c0 46.933-38.4 85.333-85.333 85.333zM780.804 264.533c-3.947-3.955-8.636-7.095-13.798-9.233-5.163-2.142-10.697-3.243-16.282-3.243-5.589 0-11.123 1.101-16.282 3.243-5.163 2.138-9.852 5.278-13.798 9.233l-123.307 123.307-123.307-123.307c-7.979-7.979-18.799-12.459-30.080-12.459s-22.103 4.48-30.081 12.459c-7.978 7.979-12.46 18.799-12.46 30.080s4.482 22.101 12.46 30.080l123.308 123.307-123.308 123.307c-7.978 7.978-12.46 18.798-12.46 30.080 0 5.586 1.1 11.118 3.238 16.279s5.271 9.851 9.222 13.801c3.95 3.95 8.64 7.084 13.799 9.222 5.163 2.138 10.692 3.238 16.282 3.238 11.281 0 22.101-4.482 30.080-12.46l123.307-123.307 123.307 123.307c3.951 3.95 8.64 7.084 13.798 9.222 5.163 2.138 10.692 3.238 16.282 3.238 5.585 0 11.119-1.1 16.277-3.238 5.163-2.138 9.852-5.271 13.803-9.222s7.083-8.64 9.22-13.801c2.138-5.161 3.238-10.693 3.238-16.279s-1.101-11.118-3.238-16.279c-2.138-5.161-5.269-9.851-9.22-13.801l-123.307-123.307 123.307-123.307c16.213-16.213 16.213-43.52 0-60.16z" />
<glyph unicode="&#xe923;" glyph-name="backup" d="M810.667 490.667c0 165.12-133.547 298.667-298.667 298.667-65.395-0.032-128.965-21.557-180.926-61.261s-89.433-95.385-106.647-158.473c-51.652-11.874-97.751-40.913-130.764-82.377-33.014-41.459-50.991-92.89-50.996-145.89 0-129.707 104.96-234.667 234.667-234.667h512c106.24 0.427 192 86.613 192 192.853 0 99.413-74.667 180.053-170.667 191.147zM554.667 405.333v-85.333c0-23.467-19.2-42.667-42.667-42.667s-42.667 19.2-42.667 42.667v85.333h-76.373c-19.2 0-28.587 23.040-14.933 36.267l119.040 119.040c8.533 8.533 21.76 8.533 30.293 0l119.040-119.040c2.923-2.982 4.907-6.754 5.705-10.854 0.802-4.1 0.38-8.341-1.212-12.203-1.587-3.861-4.279-7.172-7.731-9.519-3.452-2.351-7.518-3.631-11.695-3.691h-76.8z" />
<glyph unicode="&#xe924;" glyph-name="balance" d="M554.667 149.333v476.587c36.267 12.8 65.28 41.813 78.080 78.080h135.253l-118.613-276.907c-7.253-16.64-9.813-35.84-4.693-53.333 16.64-55.467 75.093-96.427 144.64-96.427s128.427 40.96 144.64 96.427c5.12 17.493 2.56 36.693-4.693 53.333l-118.613 276.907h42.667c23.467 0 42.667 19.2 42.667 42.667s-19.2 42.667-42.667 42.667h-220.587c-17.493 49.92-64.853 85.333-120.747 85.333s-103.253-35.413-120.747-85.333h-220.587c-23.467 0-42.667-19.2-42.667-42.667s19.2-42.667 42.667-42.667h42.667l-118.613-276.907c-7.253-16.64-9.813-35.84-4.693-53.333 16.213-55.467 75.093-96.427 144.64-96.427s128.427 40.96 144.64 96.427c5.12 17.493 2.56 36.693-4.693 53.333l-118.613 276.907h135.253c12.8-36.267 41.813-65.28 78.080-78.080v-476.587zM469.333 149.333h-341.333c-23.467 0-42.667-19.2-42.667-42.667s19.2-42.667 42.667-42.667h768c23.467 0 42.667 19.2 42.667 42.667s-19.2 42.667-42.667 42.667h-341.333zM869.12 405.333h-159.573l79.787 186.027 79.787-186.027zM0 149.333h154.88l79.787 442.027 79.787-186.027-314.453-256zM512 704c-23.467 0-42.667 19.2-42.667 42.667s19.2 42.667 42.667 42.667c23.467 0 42.667-19.2 42.667-42.667s-19.2-42.667-42.667-42.667z" />
<glyph unicode="&#xe925;" glyph-name="bar-chart" d="M273.067 567.467h8.533c32.853 0 59.733-26.88 59.733-59.733v-298.667c0-32.853-26.88-59.733-59.733-59.733h-8.533c-32.853 0-59.733 26.88-59.733 59.733v298.667c0 32.853 26.88 59.733 59.733 59.733zM512 746.667c32.853 0 59.733-26.88 59.733-59.733v-477.867c0-32.853-26.88-59.733-59.733-59.733s-59.733 26.88-59.733 59.733v477.867c0 32.853 26.88 59.733 59.733 59.733zM750.933 405.333c32.853 0 59.733-26.88 59.733-59.733v-136.533c0-32.853-26.88-59.733-59.733-59.733s-59.733 26.88-59.733 59.733v136.533c0 32.853 26.88 59.733 59.733 59.733z" />
<glyph unicode="&#xe926;" glyph-name="bar-code" d="M85.333 704h64v-512h-64v512zM181.333 704h96v-512h-96v512zM309.333 704h64v-512h-64v512zM405.333 704h64v-512h-64v512zM501.333 704h96v-512h-96v512zM629.333 704h64v-512h-64v512zM725.333 704h128v-512h-128v512zM885.333 704h64v-512h-64v512z" />
<glyph unicode="&#xe927;" glyph-name="beach-access" d="M560.218 338.773l61.013 61.013 244.48-244.48c16.64-16.64 16.64-43.947 0-61.013-16.64-16.64-43.947-16.64-61.013 0l-244.48 244.48zM743.258 583.254l54.187 54.187c37.973 37.973 32.853 103.68-13.227 131.413-82.453 50.37-179.439 71.57-275.388 60.196s-185.292-54.664-253.681-122.916c167.68 55.467 354.562 10.667 488.108-122.88zM253.869 704.854c-143.36-143.787-164.267-363.094-63.147-529.067 28.16-46.080 93.44-51.627 131.413-13.227l54.187 54.187c-133.12 133.547-177.92 320.427-122.453 488.107zM254.723 705.707l-0.427-0.427c-16.213-128.427 49.92-293.547 183.468-427.52l244.48 244.48c-133.547 133.547-299.095 199.68-427.522 183.467z" />
<glyph unicode="&#xe928;" glyph-name="block" d="M512 874.667c-235.52 0-426.667-191.147-426.667-426.667s191.147-426.667 426.667-426.667c235.52 0 426.667 191.147 426.667 426.667s-191.147 426.667-426.667 426.667zM170.667 448c0 188.587 152.747 341.333 341.333 341.333 78.933 0 151.467-26.88 209.067-72.107l-478.293-478.293c-46.858 59.601-72.261 133.252-72.107 209.067zM512 106.667c-78.933 0-151.467 26.88-209.067 72.107l478.293 478.293c46.857-59.599 72.26-133.252 72.107-209.067 0-188.587-152.747-341.333-341.333-341.333z" />
<glyph unicode="&#xe929;" glyph-name="bluetooth" d="M725.333 661.331l-183.040 183.040c-26.88 26.88-72.96 8.107-72.96-29.867v-263.68l-165.974 165.973c-3.95 3.95-8.64 7.084-13.801 9.222s-10.693 3.238-16.279 3.238c-5.586 0-11.118-1.1-16.279-3.238s-9.851-5.271-13.801-9.222c-3.95-3.95-7.084-8.64-9.222-13.801s-3.238-10.693-3.238-16.279c0-5.586 1.1-11.118 3.238-16.279s5.271-9.851 9.222-13.801l208.641-208.642-208.641-208.64c-3.95-3.947-7.084-8.636-9.222-13.798s-3.238-10.692-3.238-16.282c0-5.585 1.1-11.115 3.238-16.277s5.271-9.852 9.222-13.803c3.95-3.947 8.64-7.083 13.801-9.22s10.693-3.238 16.279-3.238c5.586 0 11.118 1.101 16.279 3.238s9.851 5.274 13.801 9.22l165.974 165.973v-263.68c0-37.973 46.080-57.169 72.96-30.293l183.040 183.467c3.955 3.951 7.091 8.64 9.233 13.798 2.142 5.163 3.243 10.697 3.243 16.282 0 5.589-1.101 11.123-3.243 16.286-2.142 5.158-5.278 9.847-9.233 13.794l-153.173 153.173 153.173 152.749c16.64 16.64 16.64 43.947 0 60.587zM554.667 711.251l80.213-80.213-80.213-80.213v160.427zM634.88 264.956l-80.213-80.213v160.427l80.213-80.213z" />
<glyph unicode="&#xe92a;" glyph-name="bolt" d="M455.253 64c-14.933 0-26.453 13.227-24.32 28.16l38.4 270.507h-149.335c-37.547 0-14.080 32-13.227 33.28 53.76 95.147 134.401 235.948 241.068 423.682 2.871 4.926 7.364 8.703 12.71 10.685s11.213 2.047 16.602 0.184c5.389-1.864 9.967-5.54 12.945-10.401s4.181-10.607 3.396-16.254l-38.4-270.507h149.76c17.067 0 26.453-8.108 17.067-28.162-140.373-244.907-221.867-387.84-245.333-428.8-4.267-7.68-12.373-12.373-21.333-12.373z" />
<glyph unicode="&#xe92b;" glyph-name="bookmark" d="M725.333 832h-426.667c-46.933 0-85.333-38.4-85.333-85.333v-682.667l298.667 128 298.667-128v682.667c0 46.933-38.4 85.333-85.333 85.333z" />
<glyph unicode="&#xe92c;" glyph-name="bookmark-border" d="M725.333 832h-426.667c-46.933 0-85.333-38.4-85.333-85.333v-682.667l298.667 128 298.667-128v682.667c0 46.933-38.4 85.333-85.333 85.333zM725.333 192l-213.333 93.013-213.333-93.013v512c0 23.467 19.2 42.667 42.667 42.667h341.333c23.467 0 42.667-19.2 42.667-42.667v-512z" />
<glyph unicode="&#xe92d;" glyph-name="bookmarks" d="M810.667 192l85.333-42.667v682.667c0 46.933-38.4 85.333-85.333 85.333h-427.093c-46.933 0-84.907-38.4-84.907-85.333h426.667c46.933 0 85.333-38.4 85.333-85.333v-554.667zM640 746.667h-426.667c-46.933 0-85.333-38.4-85.333-85.333v-682.667l298.667 128 298.667-128v682.667c0 46.933-38.4 85.333-85.333 85.333z" />
<glyph unicode="&#xe92e;" glyph-name="bug-report" d="M810.667 618.668h-77.227c-19.243 33.376-45.79 61.966-77.653 83.627l39.68 39.68c3.951 3.95 7.083 8.64 9.22 13.801s3.238 10.693 3.238 16.279c0 5.586-1.101 11.118-3.238 16.279s-5.269 9.851-9.22 13.801c-3.951 3.95-8.64 7.084-13.803 9.222-5.158 2.138-10.692 3.238-16.277 3.238-11.281 0-22.101-4.482-30.080-12.46l-62.72-62.72c-19.627 4.693-39.68 7.253-60.587 7.253s-40.96-2.56-60.16-7.253l-63.147 62.72c-3.95 3.95-8.64 7.084-13.801 9.222s-10.693 3.238-16.279 3.238c-5.586 0-11.118-1.1-16.279-3.238s-9.851-5.271-13.801-9.222c-7.978-7.978-12.46-18.798-12.46-30.080s4.482-22.102 12.46-30.080l39.253-39.68c-31.573-21.76-58.027-50.347-77.227-83.627h-77.227c-23.467 0-42.667-19.2-42.667-42.667s19.2-42.667 42.667-42.667h46.507c-2.133-14.081-3.84-28.161-3.84-42.668v-42.667h-42.667c-23.467 0-42.667-19.2-42.667-42.667s19.2-42.667 42.667-42.667h42.667v-42.667c0-14.507 1.707-28.587 3.84-42.667h-46.507c-23.467 0-42.667-19.2-42.667-42.667s19.2-42.667 42.667-42.667h77.227c44.373-76.373 126.72-128 221.44-128s177.067 51.627 221.44 128h77.227c23.467 0 42.667 19.2 42.667 42.667s-19.2 42.667-42.667 42.667h-46.507c2.133 14.080 3.84 28.16 3.84 42.667v42.667h42.667c23.467 0 42.667 19.2 42.667 42.667s-19.2 42.667-42.667 42.667h-42.667v42.667c0 14.507-1.707 28.587-3.84 42.668h46.507c23.467 0 42.667 19.2 42.667 42.667s-19.2 42.667-42.667 42.667zM554.667 277.333h-85.333c-23.467 0-42.667 19.2-42.667 42.667s19.2 42.667 42.667 42.667h85.333c23.467 0 42.667-19.2 42.667-42.667s-19.2-42.667-42.667-42.667zM554.667 448h-85.333c-23.467 0-42.667 19.2-42.667 42.667s19.2 42.668 42.667 42.668h85.333c23.467 0 42.667-19.201 42.667-42.668s-19.2-42.667-42.667-42.667z" />
<glyph unicode="&#xe92f;" glyph-name="cached" d="M795.733 603.733l-119.040-119.040c-13.653-13.653-4.267-36.693 14.933-36.693h76.373c0-141.227-114.773-256-256-256-33.707 0-66.56 6.4-95.999 18.773-15.36 6.4-32.853 1.707-44.373-9.813-21.76-21.76-14.080-58.453 14.507-69.973 38.827-15.787 81.492-24.32 125.865-24.32 188.587 0 341.333 152.747 341.333 341.333h76.373c19.2 0 28.587 23.040 14.933 36.267l-119.040 119.040c-8.107 8.533-21.76 8.533-29.867 0.427zM256.001 448c0 141.227 114.773 256 255.999 256 33.707 0 66.56-6.4 96-18.773 15.36-6.4 32.853-1.707 44.373 9.813 21.76 21.76 14.080 58.453-14.507 69.973-38.827 15.787-81.493 24.32-125.867 24.32-188.585 0-341.332-152.747-341.332-341.333h-76.373c-19.2 0-28.587-23.040-14.933-36.267l119.040-119.040c8.533-8.533 21.76-8.533 30.293 0l119.040 119.040c2.948 3.008 4.94 6.822 5.725 10.961 0.785 4.134 0.327 8.414-1.315 12.292s-4.397 7.185-7.915 9.502c-3.518 2.313-7.643 3.537-11.855 3.511h-76.373z" />
<glyph unicode="&#xe930;" glyph-name="calendar-today" d="M853.333 832h-42.667v42.667c0 23.467-19.2 42.667-42.667 42.667s-42.667-19.2-42.667-42.667v-42.667h-426.667v42.667c0 23.467-19.2 42.667-42.667 42.667s-42.667-19.2-42.667-42.667v-42.667h-42.667c-46.933 0-85.333-38.4-85.333-85.333v-682.667c0-46.933 38.4-85.333 85.333-85.333h682.667c46.933 0 85.333 38.4 85.333 85.333v682.667c0 46.933-38.4 85.333-85.333 85.333zM810.667 64h-597.333c-23.467 0-42.667 19.2-42.667 42.667v512h682.667v-512c0-23.467-19.2-42.667-42.667-42.667z" />
<glyph unicode="&#xe931;" glyph-name="call" d="M820.48 308.907l-108.373 12.373c-12.74 1.498-25.66 0.085-37.777-4.126s-23.125-11.119-32.196-20.194l-78.507-78.507c-121.122 61.602-219.57 160.051-281.172 281.173l78.933 78.933c18.347 18.347 27.307 43.947 24.32 69.973l-12.373 107.52c-2.419 20.814-12.408 40.011-28.064 53.937s-35.888 21.608-56.842 21.583h-73.813c-48.213 0-88.32-40.107-85.333-88.32 22.613-364.373 314.025-655.36 677.972-677.973 48.213-2.987 88.32 37.12 88.32 85.333v73.813c0.427 43.093-32 79.36-75.093 84.48z" />
<glyph unicode="&#xe932;" glyph-name="camera-alt" d="M512 320c70.694 0 128 57.306 128 128s-57.306 128-128 128c-70.694 0-128-57.306-128-128s57.306-128 128-128zM853.333 789.333h-135.253l-52.907 57.6c-7.953 8.73-17.634 15.705-28.437 20.48-10.799 4.775-22.473 7.246-34.283 7.253h-180.907c-23.893 0-46.933-10.24-63.147-27.733l-52.48-57.6h-135.253c-46.933 0-85.333-38.4-85.333-85.333v-512c0-46.933 38.4-85.333 85.333-85.333h682.667c46.933 0 85.333 38.4 85.333 85.333v512c0 46.933-38.4 85.333-85.333 85.333zM512 234.667c-117.76 0-213.333 95.573-213.333 213.333s95.573 213.333 213.333 213.333c117.76 0 213.333-95.573 213.333-213.333s-95.573-213.333-213.333-213.333z" />
<glyph unicode="&#xe933;" glyph-name="cancel" d="M512 874.667c-235.947 0-426.667-190.72-426.667-426.667s190.72-426.667 426.667-426.667c235.947 0 426.667 190.72 426.667 426.667s-190.72 426.667-426.667 426.667zM695.467 264.533c-3.947-3.955-8.636-7.095-13.798-9.233-5.158-2.142-10.692-3.243-16.282-3.243s-11.123 1.101-16.282 3.243c-5.163 2.138-9.852 5.278-13.798 9.233l-123.307 123.307-123.307-123.307c-7.978-7.979-18.798-12.459-30.080-12.459s-22.102 4.48-30.080 12.459c-7.978 7.979-12.46 18.799-12.46 30.080 0 5.585 1.1 11.119 3.238 16.277 2.138 5.163 5.271 9.852 9.222 13.803l123.307 123.307-123.307 123.307c-7.978 7.978-12.46 18.798-12.46 30.080s4.482 22.102 12.46 30.080c7.978 7.978 18.798 12.46 30.080 12.46s22.102-4.482 30.080-12.46l123.307-123.307 123.307 123.307c3.951 3.95 8.64 7.084 13.803 9.222 5.158 2.138 10.692 3.238 16.277 3.238s11.119-1.1 16.277-3.238c5.163-2.138 9.852-5.271 13.803-9.222s7.083-8.64 9.22-13.801c2.138-5.161 3.238-10.693 3.238-16.279s-1.101-11.118-3.238-16.279c-2.138-5.161-5.269-9.851-9.22-13.801l-123.307-123.307 123.307-123.307c16.213-16.213 16.213-43.52 0-60.16z" />
<glyph unicode="&#xe934;" glyph-name="chat" d="M853.333 874.667h-682.667c-46.933 0-84.907-38.4-84.907-85.333l-0.427-768 170.667 170.667h597.333c46.933 0 85.333 38.4 85.333 85.333v512c0 46.933-38.4 85.333-85.333 85.333zM298.667 576h426.667c23.467 0 42.667-19.2 42.667-42.667s-19.2-42.667-42.667-42.667h-426.667c-23.467 0-42.667 19.2-42.667 42.667s19.2 42.667 42.667 42.667zM554.667 362.667h-256c-23.467 0-42.667 19.2-42.667 42.667s19.2 42.667 42.667 42.667h256c23.467 0 42.667-19.2 42.667-42.667s-19.2-42.667-42.667-42.667zM725.333 618.667h-426.667c-23.467 0-42.667 19.2-42.667 42.667s19.2 42.667 42.667 42.667h426.667c23.467 0 42.667-19.2 42.667-42.667s-19.2-42.667-42.667-42.667z" />
<glyph unicode="&#xe935;" glyph-name="chat-bubble" d="M853.333 874.667h-682.667c-46.933 0-85.333-38.4-85.333-85.333v-768l170.667 170.667h597.333c46.933 0 85.333 38.4 85.333 85.333v512c0 46.933-38.4 85.333-85.333 85.333z" />
<glyph unicode="&#xe936;" glyph-name="check" d="M383.996 270.080l-148.053 148.053c-7.978 7.979-18.798 12.463-30.080 12.463s-22.102-4.484-30.080-12.463c-7.978-7.974-12.46-18.795-12.46-30.080 0-5.585 1.1-11.115 3.238-16.277s5.271-9.852 9.222-13.803l178.347-178.347c16.64-16.64 43.52-16.64 60.16 0l451.413 451.415c7.979 7.978 12.459 18.798 12.459 30.080s-4.48 22.103-12.459 30.080c-7.979 7.978-18.799 12.46-30.080 12.46s-22.101-4.482-30.080-12.46l-421.547-421.122z" />
<glyph unicode="&#xe937;" glyph-name="check-box" d="M810.667 832h-597.333c-46.933 0-85.333-38.4-85.333-85.333v-597.333c0-46.933 38.4-85.333 85.333-85.333h597.333c46.933 0 85.333 38.4 85.333 85.333v597.333c0 46.933-38.4 85.333-85.333 85.333zM456.96 264.96c-3.947-3.955-8.636-7.095-13.798-9.233-5.158-2.142-10.692-3.243-16.282-3.243-5.588 0-11.121 1.101-16.282 3.243-5.162 2.138-9.85 5.278-13.798 9.233l-153.173 153.173c-3.95 3.951-7.084 8.64-9.222 13.803-2.138 5.158-3.238 10.692-3.238 16.277s1.1 11.119 3.238 16.277c2.138 5.163 5.271 9.852 9.222 13.803s8.64 7.083 13.801 9.22c5.161 2.138 10.693 3.238 16.279 3.238s11.118-1.101 16.279-3.238c5.161-2.138 9.851-5.269 13.801-9.22l122.88-122.88 293.547 293.547c7.979 7.978 18.799 12.46 30.080 12.46s22.101-4.482 30.080-12.46c7.979-7.978 12.459-18.798 12.459-30.080s-4.48-22.102-12.459-30.080l-323.413-323.84z" />
<glyph unicode="&#xe938;" glyph-name="check-box-outline-blank" d="M768 149.333h-512c-23.467 0-42.667 19.2-42.667 42.667v512c0 23.467 19.2 42.667 42.667 42.667h512c23.467 0 42.667-19.2 42.667-42.667v-512c0-23.467-19.2-42.667-42.667-42.667zM810.667 832h-597.333c-46.933 0-85.333-38.4-85.333-85.333v-597.333c0-46.933 38.4-85.333 85.333-85.333h597.333c46.933 0 85.333 38.4 85.333 85.333v597.333c0 46.933-38.4 85.333-85.333 85.333z" />
<glyph unicode="&#xe939;" glyph-name="check-circle" d="M512 874.667c-235.52 0-426.667-191.147-426.667-426.667s191.147-426.667 426.667-426.667c235.52 0 426.667 191.147 426.667 426.667s-191.147 426.667-426.667 426.667zM396.373 264.96l-153.173 153.173c-3.95 3.951-7.084 8.64-9.222 13.803-2.138 5.158-3.238 10.692-3.238 16.277s1.1 11.119 3.238 16.277c2.138 5.163 5.271 9.852 9.222 13.803s8.64 7.083 13.801 9.22c5.161 2.138 10.693 3.238 16.279 3.238s11.118-1.101 16.279-3.238c5.161-2.138 9.851-5.269 13.801-9.22l123.307-122.88 293.547 293.547c7.979 7.978 18.799 12.46 30.080 12.46s22.101-4.482 30.080-12.46c7.979-7.978 12.459-18.798 12.459-30.080s-4.48-22.102-12.459-30.080l-323.84-323.84c-3.947-3.955-8.636-7.095-13.798-9.233-5.158-2.142-10.692-3.243-16.282-3.243-5.588 0-11.121 1.101-16.282 3.243-5.162 2.138-9.85 5.278-13.798 9.233z" />
<glyph unicode="&#xe93a;" glyph-name="checklist" d="M938.667 618.668c0 23.467-19.2 42.667-42.667 42.667h-298.667c-23.467 0-42.667-19.2-42.667-42.667s19.2-42.667 42.667-42.667h298.667c23.467 0 42.667 19.2 42.667 42.667zM554.667 277.333c0-23.467 19.2-42.667 42.667-42.667h298.667c23.467 0 42.667 19.2 42.667 42.667s-19.2 42.667-42.667 42.667h-298.667c-23.467 0-42.667-19.2-42.667-42.667zM446.72 762.455c16.64-16.64 16.64-43.52 0-60.16l-180.481-181.335c-16.64-16.64-43.52-16.64-60.587 0l-90.453 90.881c-7.978 7.978-12.46 18.798-12.46 30.080 0 5.586 1.1 11.118 3.238 16.279s5.271 9.851 9.222 13.801c3.95 3.95 8.64 7.084 13.801 9.222s10.693 3.238 16.279 3.238c11.282 0 22.102-4.482 30.080-12.46l60.587-60.587 151.040 151.040c16.213 16.213 43.521 16.213 59.734 0zM447.147 420.693c16.64-16.64 16.64-43.52 0-60.16l-180.481-181.333c-16.64-16.64-43.52-16.64-60.587 0l-90.88 91.307c-3.95 3.951-7.084 8.64-9.222 13.803s-3.238 10.692-3.238 16.277c0 5.589 1.1 11.119 3.238 16.282 2.138 5.158 5.271 9.847 9.222 13.798s8.64 7.087 13.801 9.225c5.161 2.138 10.693 3.238 16.279 3.238s11.118-1.101 16.279-3.238c5.161-2.138 9.851-5.274 13.801-9.225l60.587-60.587 151.040 151.040c16.213 16.213 43.521 16.213 60.161-0.427z" />
<glyph unicode="&#xe93b;" glyph-name="checkroom" d="M921.6 183.467l-366.933 275.2v38.827c31.454 9.357 58.944 28.83 78.212 55.395 19.264 26.566 29.231 58.743 28.356 91.549s-12.54 64.406-33.195 89.907c-20.655 25.501-49.143 43.479-81.054 51.149-75.093 17.067-143.786-22.613-171.519-84.48-12.8-28.587 7.68-61.013 38.827-61.013 16.639 0 31.999 9.387 38.399 24.32 4.83 11.755 13.047 21.806 23.612 28.872 10.56 7.067 22.989 10.829 35.695 10.808 35.413 0 64-28.587 64-64 0-35.84-29.44-64.853-65.28-64-23.040 0.427-41.387-19.2-41.387-42.24v-75.093l-366.932-275.2c-32.853-24.747-15.36-76.8 25.6-76.8h767.999c40.96 0 58.453 52.053 25.6 76.8zM256.001 192l255.999 192 256-192h-511.999z" />
<glyph unicode="&#xe93c;" glyph-name="chevron-left" d="M627.622 673.705c-3.947 3.956-8.636 7.093-13.798 9.235-5.158 2.141-10.692 3.243-16.282 3.243-5.585 0-11.119-1.102-16.282-3.243s-9.852-5.279-13.798-9.235l-195.839-195.838c-3.955-3.951-7.093-8.636-9.234-13.798s-3.243-10.697-3.243-16.282c0-5.589 1.102-11.123 3.243-16.286 2.141-5.158 5.279-9.847 9.234-13.794l195.839-195.84c3.951-3.951 8.64-7.087 13.803-9.225 5.158-2.138 10.692-3.238 16.277-3.238 5.589 0 11.119 1.101 16.282 3.238 5.158 2.138 9.847 5.274 13.798 9.225 3.951 3.947 7.083 8.636 9.225 13.798 2.138 5.163 3.234 10.692 3.234 16.282 0 5.585-1.097 11.115-3.234 16.277-2.142 5.163-5.274 9.852-9.225 13.803l-165.547 165.973 165.547 165.545c16.64 16.64 16.213 43.947 0 60.16z" />
<glyph unicode="&#xe93d;" glyph-name="chevron-right" d="M396.373 673.706c-3.955-3.948-7.093-8.636-9.234-13.798s-3.243-10.694-3.243-16.282c0-5.588 1.102-11.121 3.243-16.283s5.279-9.85 9.234-13.797l165.547-165.546-165.547-165.547c-3.95-3.951-7.084-8.64-9.221-13.803-2.138-5.158-3.238-10.692-3.238-16.277 0-5.589 1.1-11.119 3.238-16.282 2.138-5.158 5.271-9.847 9.221-13.798s8.64-7.083 13.801-9.22c5.161-2.142 10.693-3.238 16.279-3.238 5.585 0 11.119 1.097 16.277 3.238 5.163 2.138 9.852 5.269 13.803 9.22l195.84 195.84c3.955 3.947 7.095 8.636 9.233 13.798 2.142 5.158 3.243 10.692 3.243 16.282 0 5.585-1.101 11.119-3.243 16.282-2.138 5.163-5.278 9.852-9.233 13.798l-195.84 195.839c-16.213 16.213-43.52 16.213-60.16-0.427z" />
<glyph unicode="&#xe93e;" glyph-name="clear-all" d="M256 405.333h512c23.467 0 42.667 19.2 42.667 42.667s-19.2 42.667-42.667 42.667h-512c-23.467 0-42.667-19.2-42.667-42.667s19.2-42.667 42.667-42.667zM170.667 234.667h512c23.467 0 42.667 19.2 42.667 42.667s-19.2 42.667-42.667 42.667h-512c-23.467 0-42.667-19.2-42.667-42.667s19.2-42.667 42.667-42.667zM298.667 618.667c0-23.467 19.2-42.667 42.667-42.667h512c23.467 0 42.667 19.2 42.667 42.667s-19.2 42.667-42.667 42.667h-512c-23.467 0-42.667-19.2-42.667-42.667z" />
<glyph unicode="&#xe93f;" glyph-name="close" d="M780.8 716.374c-3.947 3.955-8.636 7.093-13.798 9.234s-10.697 3.243-16.282 3.243c-5.589 0-11.123-1.102-16.282-3.243-5.163-2.141-9.852-5.279-13.798-9.234l-208.64-208.214-208.641 208.641c-3.95 3.95-8.64 7.084-13.801 9.222s-10.693 3.238-16.279 3.238c-5.586 0-11.118-1.1-16.279-3.238s-9.851-5.271-13.801-9.222c-3.95-3.95-7.084-8.64-9.222-13.801s-3.238-10.693-3.238-16.279c0-5.586 1.1-11.118 3.238-16.279s5.271-9.851 9.222-13.801l208.641-208.641-208.641-208.64c-3.95-3.951-7.084-8.64-9.222-13.798-2.138-5.163-3.238-10.692-3.238-16.282 0-5.585 1.1-11.119 3.238-16.277 2.138-5.163 5.271-9.852 9.222-13.803s8.64-7.083 13.801-9.22c5.161-2.138 10.693-3.238 16.279-3.238s11.118 1.101 16.279 3.238c5.161 2.138 9.851 5.269 13.801 9.22l208.641 208.64 208.64-208.64c3.951-3.951 8.64-7.083 13.798-9.22 5.163-2.138 10.692-3.238 16.282-3.238 5.585 0 11.119 1.101 16.277 3.238 5.163 2.138 9.852 5.269 13.803 9.22s7.083 8.64 9.22 13.803c2.138 5.158 3.238 10.692 3.238 16.277 0 5.589-1.101 11.119-3.238 16.282-2.138 5.158-5.269 9.847-9.22 13.798l-208.64 208.64 208.64 208.641c16.213 16.213 16.213 43.52 0 59.733z" />
<glyph unicode="&#xe940;" glyph-name="close-fullscreen" d="M908.373 784.212l-195.84-195.84 67.84-67.838c26.88-26.88 7.68-72.96-30.293-72.96h-195.413c-23.467 0-42.667 19.2-42.667 42.667v196.265c0 37.973 46.080 57.173 72.96 30.293l67.84-67.84 195.84 195.84c3.947 3.956 8.636 7.093 13.798 9.235s10.697 3.243 16.282 3.243c5.589 0 11.123-1.102 16.286-3.243 5.158-2.141 9.847-5.279 13.794-9.235 16.213-17.067 16.213-43.947-0.427-60.587zM175.788 51.627l195.84 195.84 67.838-67.84c26.88-26.88 72.96-7.68 72.96 30.293v195.413c0 23.467-19.2 42.667-42.667 42.667h-196.265c-37.973 0-57.173-46.080-30.293-72.96l67.84-67.84-195.84-195.84c-3.956-3.947-7.093-8.636-9.235-13.798s-3.243-10.697-3.243-16.282c0-5.589 1.102-11.123 3.243-16.286 2.141-5.158 5.279-9.847 9.235-13.794 17.067-16.213 43.947-16.213 60.587 0.427z" />
<glyph unicode="&#xe941;" glyph-name="cloud-queue" d="M825.6 531.627c-14.332 72.631-53.436 138.033-110.63 185.035-57.199 47.002-128.939 72.689-202.97 72.672-123.307 0-230.4-69.973-283.733-172.373-62.71-6.777-120.704-36.489-162.838-83.427s-65.436-107.792-65.429-170.866c0-141.227 114.773-256 256-256h554.667c117.76 0 213.333 95.573 213.333 213.333 0 112.64-87.467 203.947-198.4 211.627zM810.667 192h-554.667c-94.293 0-170.667 76.373-170.667 170.667s76.373 170.667 170.667 170.667h30.293c28.16 98.56 118.187 170.667 225.707 170.667 129.707 0 234.667-104.96 234.667-234.667v-21.333h64c70.827 0 128-57.173 128-128s-57.173-128-128-128z" />
<glyph unicode="&#xe942;" glyph-name="cloud-upload" d="M825.6 531.627c-14.332 72.631-53.436 138.033-110.63 185.035-57.199 47.002-128.939 72.689-202.97 72.672-123.307 0-230.4-69.973-283.733-172.373-62.71-6.777-120.704-36.489-162.838-83.427s-65.436-107.792-65.429-170.866c0-141.227 114.773-256 256-256h554.667c117.76 0 213.333 95.573 213.333 213.333 0 112.64-87.467 203.947-198.4 211.627zM597.333 405.333v-170.667h-170.667v170.667h-128l198.4 198.4c8.533 8.533 21.76 8.533 30.293 0l197.973-198.4h-128z" />
<glyph unicode="&#xe943;" glyph-name="code" d="M371.202 281.6l-166.4 166.4 166.4 166.399c3.953 3.905 7.091 8.556 9.233 13.682s3.245 10.628 3.245 16.184c0 5.556-1.103 11.057-3.245 16.184s-5.28 9.777-9.233 13.683c-3.905 3.953-8.556 7.091-13.683 9.233s-10.628 3.245-16.184 3.245c-5.556 0-11.057-1.103-16.184-3.245s-9.777-5.28-13.682-9.233l-195.84-195.839c-3.956-3.947-7.093-8.636-9.235-13.798s-3.243-10.697-3.243-16.282c0-5.589 1.102-11.123 3.243-16.286 2.141-5.158 5.279-9.847 9.235-13.794l195.84-196.267c16.64-16.64 43.093-16.64 59.733 0 3.953 3.904 7.091 8.555 9.233 13.683 2.142 5.124 3.245 10.624 3.245 16.183 0 5.555-1.103 11.055-3.245 16.183-2.142 5.124-5.28 9.775-9.233 13.683zM652.8 281.6l166.4 166.4-166.4 166.399c-3.951 3.905-7.087 8.556-9.229 13.682s-3.247 10.628-3.247 16.184c0 5.556 1.105 11.057 3.247 16.184s5.278 9.777 9.229 13.683c3.908 3.953 8.559 7.091 13.683 9.233 5.129 2.142 10.628 3.245 16.183 3.245 5.559 0 11.059-1.103 16.188-3.245 5.124-2.142 9.775-5.28 13.679-9.233l195.84-195.839c16.64-16.64 16.64-43.52 0-60.16l-195.84-196.267c-3.904-3.955-8.555-7.091-13.679-9.233-5.129-2.142-10.628-3.247-16.188-3.247-5.555 0-11.055 1.105-16.183 3.247-5.124 2.142-9.775 5.278-13.683 9.233-3.951 3.904-7.087 8.555-9.229 13.683-2.142 5.124-3.247 10.624-3.247 16.183 0 5.555 1.105 11.055 3.247 16.183 2.142 5.124 5.278 9.775 9.229 13.683z" />
<glyph unicode="&#xe944;" glyph-name="color-lens" d="M512 832c-101.843 0-199.515-40.457-271.529-112.471s-112.471-169.686-112.471-271.529c0-101.841 40.457-199.514 112.471-271.531 72.014-72.013 169.686-112.469 271.529-112.469 35.413 0 64 28.587 64 64 0 16.64-6.4 31.573-16.64 43.093-9.813 11.093-16.213 26.027-16.213 42.24 0 35.413 28.587 64 64 64h75.52c117.76 0 213.333 95.573 213.333 213.333 0 188.587-171.947 341.333-384 341.333zM277.333 448c-35.413 0-64 28.587-64 64s28.587 64 64 64c35.413 0 64-28.587 64-64s-28.587-64-64-64zM405.333 618.667c-35.413 0-64 28.587-64 64s28.587 64 64 64c35.413 0 64-28.587 64-64s-28.587-64-64-64zM618.667 618.667c-35.413 0-64 28.587-64 64s28.587 64 64 64c35.413 0 64-28.587 64-64s-28.587-64-64-64zM746.667 448c-35.413 0-64 28.587-64 64s28.587 64 64 64c35.413 0 64-28.587 64-64s-28.587-64-64-64z" />
<glyph unicode="&#xe945;" glyph-name="commit" d="M896 405.333c23.467 0 42.667 19.2 42.667 42.667s-19.2 42.667-42.667 42.667h-174.933c-9.792 48.225-35.955 91.583-74.057 122.725-38.106 31.142-85.798 48.155-135.010 48.155s-96.907-17.012-135.008-48.155c-38.102-31.142-64.266-74.5-74.058-122.725h-174.933c-23.467 0-42.667-19.2-42.667-42.667s19.2-42.667 42.667-42.667h174.933c9.792-48.226 35.956-91.584 74.058-122.726s85.797-48.154 135.008-48.154c49.212 0 96.905 17.011 135.010 48.154 38.101 31.142 64.265 74.5 74.057 122.726h174.933zM512 320c-70.827 0-128 57.173-128 128s57.173 128 128 128c70.827 0 128-57.173 128-128s-57.173-128-128-128z" />
<glyph unicode="&#xe946;" glyph-name="computer-bug" d="M1010.953 168.921l-144.383 129.187c-11.035 9.878-26.702 12.682-40.47 7.243l-12.063-4.764c5.606 28.247 8.596 57.717 8.596 88.042 0 58.024-10.882 112.979-30.298 162.045l40.033 15.797 126.382-113.090c7.468-6.682 16.798-9.976 26.092-9.976 10.752 0 21.451 4.402 29.183 13.044 14.417 16.106 13.044 40.858-3.065 55.272l-144.383 129.2c-11.035 9.878-26.695 12.682-40.473 7.243l-69.738-27.52c-31.456 48.42-72.545 87.233-119.762 112.272l26.724 61.895 110.22-39.354c20.359-7.272 42.756 3.336 50.028 23.705 7.272 20.355-3.339 42.756-23.701 50.025l-144.774 51.691c-19.433 6.943-40.92-2.4-49.102-21.344l-43.248-100.157c-16.517 3.287-33.468 5.019-50.752 5.019s-34.238-1.732-50.755-5.019l-43.251 100.157c-8.179 18.95-29.672 28.286-49.105 21.344l-144.755-51.691c-20.359-7.269-30.97-29.669-23.701-50.031 7.269-20.355 29.676-30.973 50.031-23.701l110.201 39.354 26.728-61.901c-47.21-25.038-88.296-63.851-119.756-112.258l-69.728 27.517c-13.771 5.433-29.434 2.638-40.47-7.243l-144.39-129.2c-16.113-14.414-17.489-39.159-3.069-55.272 7.732-8.642 18.435-13.044 29.183-13.044 9.294 0 18.621 3.294 26.088 9.976l126.395 113.093 40.023-15.797c-19.42-49.069-30.302-104.018-30.302-162.045 0-30.325 2.99-59.795 8.596-88.035l-12.046 4.758c-13.778 5.433-29.434 2.632-40.47-7.243l-144.399-129.19c-16.11-14.414-17.489-39.165-3.072-55.272 7.732-8.642 18.435-13.044 29.186-13.044 9.294 0 18.621 3.287 26.088 9.969l126.395 113.087 49.747-19.632c53.318-114.13 154.525-191.192 270.605-191.192 116.097 0 217.297 77.062 270.605 191.186l49.764 19.635 126.385-113.080c7.471-6.688 16.794-9.976 26.088-9.976 10.752 0 21.454 4.402 29.183 13.044 14.417 16.11 13.041 40.861-3.072 55.275zM388.845 509.518c0 27.999 22.72 50.719 50.752 50.719 28.022 0 50.739-22.72 50.739-50.719 0-28.006-22.716-50.713-50.739-50.713-28.032 0-50.752 22.707-50.752 50.713zM490.332 204.352c-28.029 0-50.739 22.739-50.739 50.732s22.71 50.7 50.739 50.7c27.996 0 50.716-22.707 50.716-50.7s-22.72-50.732-50.716-50.732zM590.185 394.233c0 31.326 25.443 56.729 56.788 56.729 31.352 0 56.759-25.407 56.759-56.729 0-31.375-25.407-56.775-56.759-56.775-31.345 0-56.788 25.4-56.788 56.775z" />
<glyph unicode="&#xe947;" glyph-name="contact-support" d="M490.667 874.667c-200.107 0-362.667-162.56-362.667-362.667s162.56-362.667 362.667-362.667h21.333v-128c207.36 99.84 341.333 298.667 341.333 490.667 0 200.107-162.56 362.667-362.667 362.667zM533.333 256h-85.333v85.333h85.333v-85.333zM550.4 459.947c-0.427-0.427-0.853-1.28-1.28-2.133-2.133-3.413-4.267-6.827-5.973-10.24-0.853-1.28-1.28-2.987-1.707-4.693-1.28-2.987-2.56-5.973-3.413-8.96-2.987-8.96-4.267-18.347-4.267-29.013h-85.76c0 21.76 3.413 40.107 8.533 55.467 0 0.427 0 0.853 0.427 1.28 0.427 1.707 1.707 2.56 2.133 4.267 2.56 6.827 5.547 12.8 9.387 18.773 1.28 2.133 2.987 4.267 4.267 6.4 1.28 1.707 2.133 3.84 3.413 5.12l0.427-0.427c35.84 46.933 94.293 61.44 98.987 114.347 3.84 41.813-26.027 82.347-66.987 90.88-44.373 9.387-84.48-16.64-98.133-54.613-5.973-15.36-20.053-27.733-37.547-27.733h-8.533c-25.6 0-44.373 25.173-37.12 49.92 11.955 39.235 37.635 72.856 72.341 94.714 34.705 21.858 76.122 30.493 116.672 24.326 72.107-10.667 129.707-69.973 142.080-142.080 18.773-104.107-69.547-129.28-107.947-185.6z" />
<glyph unicode="&#xe948;" glyph-name="content-copy" d="M640 106.667h-426.667v554.667c0 23.467-19.2 42.667-42.667 42.667s-42.667-19.2-42.667-42.667v-554.667c0-46.933 38.4-85.333 85.333-85.333h426.667c23.467 0 42.667 19.2 42.667 42.667s-19.2 42.667-42.667 42.667zM853.333 277.333v512c0 46.933-38.4 85.333-85.333 85.333h-384c-46.933 0-85.333-38.4-85.333-85.333v-512c0-46.933 38.4-85.333 85.333-85.333h384c46.933 0 85.333 38.4 85.333 85.333zM768 277.333h-384v512h384v-512z" />
<glyph unicode="&#xe949;" glyph-name="content-cut" d="M411.303 634.025c12.373 26.453 17.92 56.747 14.507 89.173-8.107 73.813-65.707 136.533-139.093 148.907-27.156 4.921-55.098 3.197-81.443-5.025s-50.307-22.698-69.843-42.192c-19.535-19.494-34.063-43.425-42.341-69.752s-10.063-54.266-5.2-81.431c12.8-73.387 75.093-130.987 148.907-139.093 32.427-3.412 62.293 2.133 89.173 14.507l100.693-101.118-100.693-100.693c-26.453 12.373-56.747 17.92-89.173 14.507-73.813-8.107-136.533-65.707-148.907-139.093-4.905-27.136-3.165-55.053 5.071-81.37s22.721-50.244 42.219-69.743c19.498-19.499 43.427-33.984 69.743-42.219s54.234-9.975 81.368-5.069c73.387 12.8 130.987 75.093 139.093 148.907 3.413 32.427-2.133 62.293-14.507 89.173l101.12 100.267 323.84-323.84c37.973-37.973 102.827-11.093 102.827 42.667v0.427c0 15.787-6.4 31.147-17.493 42.667l-509.866 509.438zM255.996 618.665c-46.933 0-85.333 37.973-85.333 85.333s38.4 85.333 85.333 85.333c46.933 0 85.333-37.973 85.333-85.333s-38.4-85.333-85.333-85.333zM255.996 106.667c-46.933 0-85.333 37.973-85.333 85.333s38.4 85.333 85.333 85.333c46.933 0 85.333-37.973 85.333-85.333s-38.4-85.333-85.333-85.333zM511.996 426.667c-11.947 0-21.333 9.387-21.333 21.333s9.387 21.333 21.333 21.333c11.947 0 21.333-9.387 21.333-21.333s-9.387-21.333-21.333-21.333zM835.836 857.172l-281.173-281.173 85.333-85.332 281.173 281.172c11.093 11.093 17.493 26.453 17.493 42.667v0.427c0 53.333-64.853 80.213-102.827 42.24z" />
<glyph unicode="&#xe94a;" glyph-name="content-paste" d="M810.667 874.667h-178.347c-17.92 49.493-64.853 85.333-120.32 85.333s-102.4-35.84-120.32-85.333h-178.347c-46.933 0-85.333-38.4-85.333-85.333v-682.667c0-46.933 38.4-85.333 85.333-85.333h597.333c46.933 0 85.333 38.4 85.333 85.333v682.667c0 46.933-38.4 85.333-85.333 85.333zM512 874.667c23.467 0 42.667-19.2 42.667-42.667s-19.2-42.667-42.667-42.667c-23.467 0-42.667 19.2-42.667 42.667s19.2 42.667 42.667 42.667zM768 106.667h-512c-23.467 0-42.667 19.2-42.667 42.667v597.333c0 23.467 19.2 42.667 42.667 42.667h42.667v-42.667c0-46.933 38.4-85.333 85.333-85.333h256c46.933 0 85.333 38.4 85.333 85.333v42.667h42.667c23.467 0 42.667-19.2 42.667-42.667v-597.333c0-23.467-19.2-42.667-42.667-42.667z" />
<glyph unicode="&#xe94b;" glyph-name="coronavirus" d="M906.667 512c-17.493 0-32-14.507-32-32h-65.707c-6.153 57.078-28.672 111.16-64.853 155.733l46.507 46.507 0.427-0.427c12.373-12.373 32.853-12.373 45.227 0s12.373 32.853 0 45.227l-45.227 45.227c-6.020 5.951-14.148 9.289-22.613 9.289s-16.593-3.337-22.613-9.289c-12.373-12.373-12.373-32.427-0.427-44.8l-46.507-46.507c-44.548 35.874-98.445 58.232-155.307 64.427v65.28h0.427c17.493 0 32 14.507 32 32s-14.507 32-32 32h-64c-17.493 0-32-14.507-32-32s14.080-31.573 31.573-32v-66.133c-58.453-5.973-111.787-29.44-155.307-64.427l-46.507 46.507 0.427 0.427c12.373 12.373 12.373 32.853 0 45.227-6.022 5.951-14.147 9.289-22.613 9.289s-16.591-3.337-22.613-9.289l-45.227-45.227c-12.373-12.373-12.373-32.853 0-45.227s32.427-12.373 44.8-0.427l46.507-46.507c-35.908-44.324-58.145-98.137-64-154.88h-65.707c0 17.493-14.507 32-32 32s-32-14.507-32-32v-64c0-17.493 14.507-32 32-32s32 14.507 32 32h65.707c6.4-58.453 29.44-111.36 64-154.88l-46.507-46.507c-2.968 2.914-6.482 5.218-10.341 6.775s-7.986 2.338-12.147 2.3c-4.161-0.043-8.273-0.9-12.102-2.53s-7.298-3.998-10.21-6.972c-12.373-12.373-12.373-32.853 0-45.227l45.227-45.227c12.373-12.373 32.853-12.373 45.227 0s12.373 32.853 0 45.227l-0.427 0.427 46.507 46.507c43.52-34.987 96.427-58.027 154.88-64.427v-66.133c-17.493-0.427-31.573-14.507-31.573-32s14.507-32 32-32h64c17.493 0 32 14.507 32 32s-14.507 32-32 32h-0.427v65.707c58.453 5.973 111.787 29.44 155.307 64.427l46.507-46.507c-12.373-12.373-11.947-32.427 0.427-44.8s32.853-12.373 45.227 0l45.227 45.227c12.373 12.373 12.373 32.853 0 45.227-6.020 5.952-14.148 9.289-22.613 9.289s-16.593-3.337-22.613-9.289l-0.427-0.427-46.507 46.507c36.083 44.634 58.59 98.684 64.853 155.733h65.707c0-17.493 14.507-32 32-32s32 14.507 32 32v64c0.427 17.067-14.080 31.573-31.573 31.573zM586.667 618.667c23.467 0 42.667-19.2 42.667-42.667s-19.2-42.667-42.667-42.667c-23.467 0-42.667 19.2-42.667 42.667s19.2 42.667 42.667 42.667zM512 405.333c-23.467 0-42.667 19.2-42.667 42.667s19.2 42.667 42.667 42.667c23.467 0 42.667-19.2 42.667-42.667s-19.2-42.667-42.667-42.667zM437.333 618.667c23.467 0 42.667-19.2 42.667-42.667s-19.2-42.667-42.667-42.667c-23.467 0-42.667 19.2-42.667 42.667s19.2 42.667 42.667 42.667zM362.667 405.333c-23.467 0-42.667 19.2-42.667 42.667s19.2 42.667 42.667 42.667c23.467 0 42.667-19.2 42.667-42.667s-19.2-42.667-42.667-42.667zM437.333 277.333c-23.467 0-42.667 19.2-42.667 42.667s19.2 42.667 42.667 42.667c23.467 0 42.667-19.2 42.667-42.667s-19.2-42.667-42.667-42.667zM586.667 277.333c-23.467 0-42.667 19.2-42.667 42.667s19.2 42.667 42.667 42.667c23.467 0 42.667-19.2 42.667-42.667s-19.2-42.667-42.667-42.667zM618.667 448c0 23.467 19.2 42.667 42.667 42.667s42.667-19.2 42.667-42.667c0-23.467-19.2-42.667-42.667-42.667s-42.667 19.2-42.667 42.667z" />
<glyph unicode="&#xe94c;" glyph-name="create" d="M128 215.040v-129.707c0-11.947 9.387-21.333 21.333-21.333h129.707c5.547 0 11.093 2.133 14.933 6.4l465.92 465.493-160 160-465.493-465.493c-4.267-4.267-6.4-9.387-6.4-15.36zM883.627 659.627c3.955 3.947 7.091 8.636 9.233 13.797s3.243 10.695 3.243 16.283c0 5.588-1.101 11.121-3.243 16.282s-5.278 9.85-9.233 13.798l-99.84 99.84c-3.947 3.955-8.636 7.093-13.798 9.234-5.158 2.141-10.692 3.243-16.282 3.243s-11.123-1.102-16.282-3.243c-5.163-2.141-9.852-5.279-13.798-9.234l-78.080-78.080 160-160 78.080 78.080z" />
<glyph unicode="&#xe94d;" glyph-name="create-new-folder" d="M853.333 704h-341.333l-60.16 60.16c-16.213 16.213-37.973 25.173-60.587 25.173h-220.587c-47.36 0-84.907-37.973-84.907-85.333l-0.427-512c0-47.36 37.973-85.333 85.333-85.333h682.667c46.933 0 85.333 38.4 85.333 85.333v426.667c0 46.933-38.4 85.333-85.333 85.333zM768 362.667h-85.333v-85.333c0-23.467-19.2-42.667-42.667-42.667s-42.667 19.2-42.667 42.667v85.333h-85.333c-23.467 0-42.667 19.2-42.667 42.667s19.2 42.667 42.667 42.667h85.333v85.333c0 23.467 19.2 42.667 42.667 42.667s42.667-19.2 42.667-42.667v-85.333h85.333c23.467 0 42.667-19.2 42.667-42.667s-19.2-42.667-42.667-42.667z" />
<glyph unicode="&#xe94e;" glyph-name="credit-card" d="M853.333 789.333h-682.667c-47.36 0-84.907-37.973-84.907-85.333l-0.427-512c0-47.36 37.973-85.333 85.333-85.333h682.667c47.36 0 85.333 37.973 85.333 85.333v512c0 47.36-37.973 85.333-85.333 85.333zM810.667 192h-597.333c-23.467 0-42.667 19.2-42.667 42.667v213.333h682.667v-213.333c0-23.467-19.2-42.667-42.667-42.667zM853.333 618.667h-682.667v85.333h682.667v-85.333z" />
<glyph unicode="&#xe94f;" glyph-name="crop-free" d="M128 746.667v-128c0-23.467 19.2-42.667 42.667-42.667s42.667 19.2 42.667 42.667v85.333c0 23.467 19.2 42.667 42.667 42.667h85.333c23.467 0 42.667 19.2 42.667 42.667s-19.2 42.667-42.667 42.667h-128c-46.933 0-85.333-38.4-85.333-85.333zM170.667 320c-23.467 0-42.667-19.2-42.667-42.667v-128c0-46.933 38.4-85.333 85.333-85.333h128c23.467 0 42.667 19.2 42.667 42.667s-19.2 42.667-42.667 42.667h-85.333c-23.467 0-42.667 19.2-42.667 42.667v85.333c0 23.467-19.2 42.667-42.667 42.667zM810.667 192c0-23.467-19.2-42.667-42.667-42.667h-85.333c-23.467 0-42.667-19.2-42.667-42.667s19.2-42.667 42.667-42.667h128c46.933 0 85.333 38.4 85.333 85.333v128c0 23.467-19.2 42.667-42.667 42.667s-42.667-19.2-42.667-42.667v-85.333zM810.667 832h-128c-23.467 0-42.667-19.2-42.667-42.667s19.2-42.667 42.667-42.667h85.333c23.467 0 42.667-19.2 42.667-42.667v-85.333c0-23.467 19.2-42.667 42.667-42.667s42.667 19.2 42.667 42.667v128c0 46.933-38.4 85.333-85.333 85.333z" />
<glyph unicode="&#xe950;" glyph-name="currency-bitcoin" d="M426.667 661.333h170.667c46.933 0 85.333-38.4 85.333-85.333s-38.4-85.333-85.333-85.333h-170.667v170.667zM640 234.667h-213.333v170.667h213.333c46.933 0 85.333-38.4 85.333-85.333s-38.4-85.333-85.333-85.333zM640 789.333c0 23.467-19.2 42.667-42.667 42.667s-42.667-19.2-42.667-42.667v-42.667h-85.333v42.667c0 23.467-19.2 42.667-42.667 42.667s-42.667-19.2-42.667-42.667v-42.667h-85.333c-23.467 0-42.667-19.2-42.667-42.667s19.2-42.667 42.667-42.667h42.667v-426.667h-42.667c-23.467 0-42.667-19.2-42.667-42.667s19.2-42.667 42.667-42.667h85.333v-42.667c0-23.467 19.2-42.667 42.667-42.667s42.667 19.2 42.667 42.667v42.667h85.333v-42.667c0-23.467 19.2-42.667 42.667-42.667s42.667 19.2 42.667 42.667v42.667c94.293 0 170.667 76.373 170.667 170.667 0 61.867-33.28 116.48-82.773 146.347 25.173 29.44 40.107 67.84 40.107 109.653 0 79.36-54.187 146.347-128 165.12v48.213z" />
<glyph unicode="&#xe951;" glyph-name="currency-pound" d="M734.293 208.644c-20.053 10.24-43.947 2.133-55.893-17.067-15.36-25.6-41.387-42.24-81.067-42.24h-209.067c35.413 42.667 64 99.84 64 170.667 0 14.933-1.28 29.44-3.413 42.667h105.813c23.467 0 42.667 19.2 42.667 42.667s-19.2 42.667-42.667 42.667h-135.68c-34.987 67.413-77.653 102.398-77.653 170.665 0 82.347 66.987 149.333 149.333 149.333 51.2 0 96.427-26.027 123.307-65.28 11.52-17.067 32.853-25.173 52.053-17.067 25.6 10.667 34.133 42.24 18.347 65.28-28.237 41.452-69.022 72.759-116.361 89.326s-98.743 17.523-146.668 2.726c-47.923-14.797-89.841-44.567-119.6-84.94s-45.792-89.223-45.745-139.379c0-75.947 33.707-123.731 63.573-170.665h-20.907c-23.467 0-42.667-19.2-42.667-42.667s19.2-42.667 42.667-42.667h62.72c3.413-13.227 5.547-27.307 5.547-42.667 0-81.067-55.040-132.693-87.893-156.16-14.507-10.24-23.040-26.88-23.040-44.8 0-30.293 24.747-55.040 55.040-55.040h286.293c66.133 0 125.867 32.427 154.88 85.333 11.947 21.76 3.84 48.64-17.92 59.307z" />
<glyph unicode="&#xe952;" glyph-name="currency-yen" d="M290.99 832c14.507 0 28.16-7.253 35.84-19.627l185.175-291.413 185.173 291.413c7.68 12.373 21.333 19.627 35.84 19.627 33.707 0 54.187-37.12 35.84-65.707l-174.933-275.627h131.413c23.467 0 42.667-19.2 42.667-42.667s-19.2-42.667-42.667-42.667h-170.667v-85.333h170.667c23.467 0 42.667-19.2 42.667-42.667s-19.2-42.667-42.667-42.667h-170.667v-128c0-23.467-19.2-42.667-42.667-42.667s-42.667 19.2-42.667 42.667v128h-170.668c-23.467 0-42.667 19.2-42.667 42.667s19.2 42.667 42.667 42.667h170.668v85.333h-170.668c-23.467 0-42.667 19.2-42.667 42.667s19.2 42.667 42.667 42.667h131.415l-174.935 275.627c-4.162 6.435-6.511 13.875-6.797 21.534s1.499 15.253 5.169 21.981c3.67 6.729 9.088 12.342 15.683 16.247s14.121 5.959 21.785 5.944z" />
<glyph unicode="&#xe953;" glyph-name="dangerous" d="M635.733 832h-247.467c-22.613 0-44.373-8.96-60.587-25.173l-174.933-174.933c-15.787-15.787-24.747-37.547-24.747-60.16v-247.467c0-22.613 8.96-44.373 25.173-60.16l174.933-174.933c15.787-16.213 37.547-25.173 60.16-25.173h247.467c22.613 0 44.373 8.96 60.16 25.173l174.933 174.933c16.213 15.787 25.173 37.547 25.173 60.16v247.467c0 22.613-8.96 44.373-25.173 60.16l-174.933 174.933c-15.787 16.213-37.547 25.173-60.16 25.173zM663.040 296.96c-3.947-3.955-8.636-7.095-13.798-9.233-5.158-2.142-10.692-3.243-16.282-3.243s-11.123 1.101-16.282 3.243c-5.163 2.138-9.852 5.278-13.798 9.233l-90.88 90.88-90.453-90.453c-3.95-3.951-8.64-7.083-13.801-9.22s-10.693-3.238-16.279-3.238c-5.586 0-11.118 1.101-16.279 3.238s-9.851 5.269-13.801 9.22c-3.95 3.951-7.084 8.64-9.222 13.803-2.138 5.158-3.238 10.692-3.238 16.277s1.1 11.119 3.238 16.277c2.138 5.163 5.271 9.852 9.222 13.803l90.453 90.453-90.88 90.453c-3.95 3.95-7.084 8.64-9.222 13.801s-3.238 10.693-3.238 16.279c0 5.586 1.1 11.118 3.238 16.279s5.271 9.851 9.222 13.801c3.95 3.95 8.64 7.084 13.801 9.222s10.693 3.238 16.279 3.238c5.586 0 11.118-1.1 16.279-3.238s9.851-5.271 13.801-9.222l90.88-90.453 90.453 90.453c3.951 3.95 8.64 7.084 13.803 9.222 5.158 2.138 10.692 3.238 16.277 3.238s11.119-1.1 16.277-3.238c5.163-2.138 9.852-5.271 13.803-9.222s7.083-8.64 9.22-13.801c2.138-5.161 3.238-10.693 3.238-16.279s-1.101-11.118-3.238-16.279c-2.138-5.161-5.269-9.851-9.22-13.801l-90.453-90.453 90.453-90.453c17.067-16.64 17.067-43.947 0.427-60.587z" />
<glyph unicode="&#xe954;" glyph-name="dashboard" d="M170.667 405.333h256c23.467 0 42.667 19.2 42.667 42.667v341.333c0 23.467-19.2 42.667-42.667 42.667h-256c-23.467 0-42.667-19.2-42.667-42.667v-341.333c0-23.467 19.2-42.667 42.667-42.667zM170.667 64h256c23.467 0 42.667 19.2 42.667 42.667v170.667c0 23.467-19.2 42.667-42.667 42.667h-256c-23.467 0-42.667-19.2-42.667-42.667v-170.667c0-23.467 19.2-42.667 42.667-42.667zM597.333 64h256c23.467 0 42.667 19.2 42.667 42.667v341.333c0 23.467-19.2 42.667-42.667 42.667h-256c-23.467 0-42.667-19.2-42.667-42.667v-341.333c0-23.467 19.2-42.667 42.667-42.667zM554.667 789.333v-170.667c0-23.467 19.2-42.667 42.667-42.667h256c23.467 0 42.667 19.2 42.667 42.667v170.667c0 23.467-19.2 42.667-42.667 42.667h-256c-23.467 0-42.667-19.2-42.667-42.667z" />
<glyph unicode="&#xe955;" glyph-name="data-object" d="M170.667 661.333v-85.333c0-23.467-19.2-42.667-42.667-42.667s-42.667-19.2-42.667-42.667v-85.333c0-23.467 19.2-42.667 42.667-42.667s42.667-19.2 42.667-42.667v-85.333c0-70.827 57.173-128 128-128h85.333c23.467 0 42.667 19.2 42.667 42.667s-19.2 42.667-42.667 42.667h-85.333c-23.467 0-42.667 19.2-42.667 42.667v85.333c0 55.467-35.84 103.253-85.333 120.747v14.507c49.493 17.493 85.333 65.28 85.333 120.747v85.333c0 23.467 19.2 42.667 42.667 42.667h85.333c23.467 0 42.667 19.2 42.667 42.667s-19.2 42.667-42.667 42.667h-85.333c-70.827 0-128-57.173-128-128zM896 533.333c-23.467 0-42.667 19.2-42.667 42.667v85.333c0 70.827-57.173 128-128 128h-85.333c-23.467 0-42.667-19.2-42.667-42.667s19.2-42.667 42.667-42.667h85.333c23.467 0 42.667-19.2 42.667-42.667v-85.333c0-55.467 35.84-103.253 85.333-120.747v-14.507c-49.493-17.493-85.333-64.853-85.333-120.747v-85.333c0-23.467-19.2-42.667-42.667-42.667h-85.333c-23.467 0-42.667-19.2-42.667-42.667s19.2-42.667 42.667-42.667h85.333c70.827 0 128 57.173 128 128v85.333c0 23.467 19.2 42.667 42.667 42.667s42.667 19.2 42.667 42.667v85.333c0 23.467-19.2 42.667-42.667 42.667z" />
<glyph unicode="&#xe956;" glyph-name="date-range" d="M810.667 789.333h-42.667v42.667c0 23.467-19.2 42.667-42.667 42.667s-42.667-19.2-42.667-42.667v-42.667h-341.333v42.667c0 23.467-19.2 42.667-42.667 42.667s-42.667-19.2-42.667-42.667v-42.667h-42.667c-47.36 0-84.907-38.4-84.907-85.333l-0.427-597.333c0-22.63 8.99-44.335 24.994-60.339s37.708-24.994 60.34-24.994h597.333c46.933 0 85.333 38.4 85.333 85.333v597.333c0 46.933-38.4 85.333-85.333 85.333zM810.667 149.333c0-23.467-19.2-42.667-42.667-42.667h-512c-23.467 0-42.667 19.2-42.667 42.667v426.667h597.333v-426.667zM298.667 490.667h85.333v-85.333h-85.333v85.333zM469.333 490.667h85.333v-85.333h-85.333v85.333zM640 490.667h85.333v-85.333h-85.333v85.333z" />
<glyph unicode="&#xe957;" glyph-name="delete" d="M256 149.333c0-46.933 38.4-85.333 85.333-85.333h341.333c46.933 0 85.333 38.4 85.333 85.333v426.667c0 46.933-38.4 85.333-85.333 85.333h-341.333c-46.933 0-85.333-38.4-85.333-85.333v-426.667zM768 789.333h-106.667l-30.293 30.293c-7.68 7.68-18.773 12.373-29.867 12.373h-178.347c-11.093 0-22.187-4.693-29.867-12.373l-30.293-30.293h-106.667c-23.467 0-42.667-19.2-42.667-42.667s19.2-42.667 42.667-42.667h512c23.467 0 42.667 19.2 42.667 42.667s-19.2 42.667-42.667 42.667z" />
<glyph unicode="&#xe958;" glyph-name="delete-outline" d="M256 149.333c0-46.933 38.4-85.333 85.333-85.333h341.333c46.933 0 85.333 38.4 85.333 85.333v426.667c0 46.933-38.4 85.333-85.333 85.333h-341.333c-46.933 0-85.333-38.4-85.333-85.333v-426.667zM384 576h256c23.467 0 42.667-19.2 42.667-42.667v-341.333c0-23.467-19.2-42.667-42.667-42.667h-256c-23.467 0-42.667 19.2-42.667 42.667v341.333c0 23.467 19.2 42.667 42.667 42.667zM661.333 789.333l-30.293 30.293c-7.68 7.68-18.773 12.373-29.867 12.373h-178.347c-11.093 0-22.187-4.693-29.867-12.373l-30.293-30.293h-106.667c-23.467 0-42.667-19.2-42.667-42.667s19.2-42.667 42.667-42.667h512c23.467 0 42.667 19.2 42.667 42.667s-19.2 42.667-42.667 42.667h-106.667z" />
<glyph unicode="&#xe959;" glyph-name="description" d="M622.507 849.493c-16.213 16.213-37.973 25.173-60.587 25.173h-305.92c-46.933 0-85.333-38.4-85.333-85.333v-682.667c0-46.933 37.973-85.333 84.907-85.333h512.427c46.933 0 85.333 38.4 85.333 85.333v476.587c0 22.613-8.96 44.373-25.173 60.16l-205.653 206.080zM640 192h-256c-23.467 0-42.667 19.2-42.667 42.667s19.2 42.667 42.667 42.667h256c23.467 0 42.667-19.2 42.667-42.667s-19.2-42.667-42.667-42.667zM640 362.667h-256c-23.467 0-42.667 19.2-42.667 42.667s19.2 42.667 42.667 42.667h256c23.467 0 42.667-19.2 42.667-42.667s-19.2-42.667-42.667-42.667zM554.667 618.667v192l234.667-234.667h-192c-23.467 0-42.667 19.2-42.667 42.667z" />
<glyph unicode="&#xe95a;" glyph-name="desktop-mac" d="M896 874.667h-768c-46.933 0-85.333-38.4-85.333-85.333v-512c0-46.933 38.4-85.333 85.333-85.333h298.667l-69.547-104.533c-18.773-28.16 1.28-66.133 35.413-66.133h238.933c34.133 0 54.613 37.973 35.413 66.133l-69.547 104.533h298.667c46.933 0 85.333 38.4 85.333 85.333v512c0 46.933-38.4 85.333-85.333 85.333zM896 362.667h-768v384c0 23.467 19.2 42.667 42.667 42.667h682.667c23.467 0 42.667-19.2 42.667-42.667v-384z" />
<glyph unicode="&#xe95b;" glyph-name="desktop-windows" d="M896 874.667h-768c-46.933 0-85.333-38.4-85.333-85.333v-512c0-46.933 38.4-85.333 85.333-85.333h298.667v-85.333h-42.667c-23.467 0-42.667-19.2-42.667-42.667s19.2-42.667 42.667-42.667h256c23.467 0 42.667 19.2 42.667 42.667s-19.2 42.667-42.667 42.667h-42.667v85.333h298.667c46.933 0 85.333 38.4 85.333 85.333v512c0 46.933-38.4 85.333-85.333 85.333zM853.333 277.333h-682.667c-23.467 0-42.667 19.2-42.667 42.667v426.667c0 23.467 19.2 42.667 42.667 42.667h682.667c23.467 0 42.667-19.2 42.667-42.667v-426.667c0-23.467-19.2-42.667-42.667-42.667z" />
<glyph unicode="&#xe95c;" glyph-name="dialpad" d="M512 149.333c-46.933 0-85.333-38.4-85.333-85.333s38.4-85.333 85.333-85.333c46.933 0 85.333 38.4 85.333 85.333s-38.4 85.333-85.333 85.333zM256 917.333c-46.933 0-85.333-38.4-85.333-85.333s38.4-85.333 85.333-85.333c46.933 0 85.333 38.4 85.333 85.333s-38.4 85.333-85.333 85.333zM256 661.333c-46.933 0-85.333-38.4-85.333-85.333s38.4-85.333 85.333-85.333c46.933 0 85.333 38.4 85.333 85.333s-38.4 85.333-85.333 85.333zM256 405.333c-46.933 0-85.333-38.4-85.333-85.333s38.4-85.333 85.333-85.333c46.933 0 85.333 38.4 85.333 85.333s-38.4 85.333-85.333 85.333zM768 746.667c46.933 0 85.333 38.4 85.333 85.333s-38.4 85.333-85.333 85.333c-46.933 0-85.333-38.4-85.333-85.333s38.4-85.333 85.333-85.333zM512 405.333c-46.933 0-85.333-38.4-85.333-85.333s38.4-85.333 85.333-85.333c46.933 0 85.333 38.4 85.333 85.333s-38.4 85.333-85.333 85.333zM768 405.333c-46.933 0-85.333-38.4-85.333-85.333s38.4-85.333 85.333-85.333c46.933 0 85.333 38.4 85.333 85.333s-38.4 85.333-85.333 85.333zM768 661.333c-46.933 0-85.333-38.4-85.333-85.333s38.4-85.333 85.333-85.333c46.933 0 85.333 38.4 85.333 85.333s-38.4 85.333-85.333 85.333zM512 661.333c-46.933 0-85.333-38.4-85.333-85.333s38.4-85.333 85.333-85.333c46.933 0 85.333 38.4 85.333 85.333s-38.4 85.333-85.333 85.333zM512 917.333c-46.933 0-85.333-38.4-85.333-85.333s38.4-85.333 85.333-85.333c46.933 0 85.333 38.4 85.333 85.333s-38.4 85.333-85.333 85.333z" />
<glyph unicode="&#xe95d;" glyph-name="discord" d="M822.187 732.585c-56.747 26.453-118.187 45.653-182.187 56.747-0.563 0.018-1.118-0.087-1.634-0.308s-0.977-0.553-1.353-0.972c-7.68-14.080-16.64-32.427-22.613-46.507-67.883 10.24-136.917 10.24-204.8 0-5.973 14.507-14.933 32.427-23.040 46.507-0.427 0.853-1.707 1.28-2.987 1.28-64-11.093-125.013-30.293-182.187-56.747-0.427 0-0.853-0.427-1.28-0.853-116.053-173.653-148.053-342.611-132.267-509.865 0-0.853 0.427-1.707 1.28-2.133 76.8-56.32 150.613-90.453 223.573-113.067 1.28-0.427 2.56 0 2.987 0.853 17.067 23.467 32.427 48.213 45.653 74.24 0.853 1.707 0 3.413-1.707 3.84-24.32 9.387-47.36 20.48-69.973 33.28-1.707 0.853-1.707 3.413-0.427 4.693 4.693 3.413 9.386 7.253 14.080 10.667 0.853 0.853 2.133 0.853 2.987 0.427 146.773-66.987 305.067-66.987 450.133 0 0.853 0.427 2.133 0.427 2.987-0.427 4.693-3.84 9.387-7.253 14.080-11.093 1.707-1.28 1.707-3.84-0.427-4.693-22.187-13.227-45.653-23.893-69.973-33.28-1.707-0.427-2.133-2.56-1.707-3.84 13.653-26.027 29.013-50.773 45.653-74.24 1.28-0.427 2.56-0.853 3.84-0.427 73.387 22.613 147.2 56.747 224 113.067 0.853 0.427 1.28 1.28 1.28 2.133 18.773 193.28-31.147 360.958-132.267 509.865-0.427 0.427-0.853 0.853-1.707 0.853zM363.52 323.84c-43.947 0-80.64 40.533-80.64 90.453s35.84 90.453 80.64 90.453c45.227 0 81.067-40.96 80.64-90.453 0-49.92-35.84-90.453-80.64-90.453zM660.907 323.84c-43.947 0-80.64 40.533-80.64 90.453s35.84 90.453 80.64 90.453c45.227 0 81.067-40.96 80.64-90.453 0-49.92-35.413-90.453-80.64-90.453z" />
<glyph unicode="&#xe95e;" glyph-name="done" d="M384.003 268.8l-149.333 149.333c-3.905 3.951-8.556 7.091-13.683 9.233s-10.628 3.243-16.184 3.243c-5.556 0-11.057-1.101-16.184-3.243s-9.777-5.282-13.682-9.233c-3.953-3.904-7.091-8.555-9.233-13.683s-3.245-10.628-3.245-16.183c0-5.555 1.103-11.059 3.245-16.183 2.142-5.129 5.28-9.779 9.233-13.683l178.773-178.773c16.64-16.64 43.52-16.64 60.16 0l452.268 451.84c3.951 3.905 7.087 8.556 9.229 13.683s3.247 10.628 3.247 16.184c0 5.556-1.105 11.057-3.247 16.184s-5.278 9.777-9.229 13.682c-3.908 3.953-8.559 7.091-13.683 9.233-5.129 2.142-10.628 3.245-16.183 3.245-5.559 0-11.059-1.103-16.188-3.245-5.124-2.142-9.775-5.28-13.679-9.233l-422.402-422.4z" />
<glyph unicode="&#xe95f;" glyph-name="done-all" d="M738.133 691.2c-3.947 3.955-8.636 7.093-13.798 9.234-5.158 2.141-10.692 3.243-16.282 3.243s-11.119-1.102-16.282-3.243c-5.163-2.141-9.852-5.279-13.798-9.234l-240.64-240.64 60.16-60.16 240.64 241.067c16.213 16.213 16.213 43.52 0 59.733zM919.040 691.627l-421.547-421.547-148.479 148.053c-7.978 7.979-18.798 12.459-30.080 12.459s-22.102-4.48-30.080-12.459c-7.977-7.979-12.46-18.799-12.46-30.080s4.482-22.101 12.46-30.080l178.346-178.347c16.64-16.64 43.52-16.64 60.16 0l451.84 451.413c3.955 3.947 7.095 8.636 9.233 13.798 2.142 5.161 3.247 10.694 3.247 16.282s-1.105 11.121-3.247 16.283c-2.138 5.161-5.278 9.85-9.233 13.797h-0.427c-3.849 4.028-8.469 7.241-13.585 9.449-5.111 2.208-10.62 3.367-16.192 3.407-5.568 0.040-11.093-1.040-16.239-3.175s-9.809-5.282-13.717-9.254zM47.787 357.547l178.347-178.347c16.64-16.64 43.52-16.64 60.16 0l29.867 29.867-208.213 209.067c-3.947 3.955-8.636 7.095-13.797 9.233-5.161 2.142-10.695 3.243-16.283 3.243s-11.121-1.101-16.282-3.243c-5.161-2.138-9.85-5.278-13.798-9.233-16.64-16.64-16.64-43.947 0-60.587z" />
<glyph unicode="&#xe960;" glyph-name="download" d="M707.84 576h-67.84v213.333c0 23.467-19.2 42.667-42.667 42.667h-170.667c-23.467 0-42.667-19.2-42.667-42.667v-213.333h-67.84c-37.973 0-57.173-46.080-30.293-72.96l195.84-195.84c16.64-16.64 43.52-16.64 60.16 0l195.84 195.84c26.88 26.88 8.107 72.96-29.867 72.96zM213.333 149.333c0-23.467 19.2-42.667 42.667-42.667h512c23.467 0 42.667 19.2 42.667 42.667s-19.2 42.667-42.667 42.667h-512c-23.467 0-42.667-19.2-42.667-42.667z" />
<glyph unicode="&#xe961;" glyph-name="download-done" d="M256 192.004h512c23.467 0 42.667-19.2 42.667-42.667s-19.2-42.667-42.667-42.667h-512c-23.467 0-42.667 19.2-42.667 42.667s19.2 42.667 42.667 42.667zM469.76 366.938c-16.043-15.838-37.705-24.683-60.248-24.602-22.544 0.077-44.14 9.075-60.072 25.028l-93.44 93.44c-23.467 23.467-23.040 61.44 1.28 84.052 23.040 22.187 59.733 21.333 81.92-0.853l70.4-70.398 274.347 274.345c23.040 23.040 60.16 23.040 83.2 0l1.707-1.707c23.040-23.040 23.040-60.587-0.427-83.627l-298.667-295.678z" />
<glyph unicode="&#xe962;" glyph-name="drafts" d="M938.24 618.667c0 30.72-15.787 57.6-40.107 72.533l-343.040 200.96c-26.453 15.787-59.733 15.787-86.187 0l-343.040-200.96c-24.32-14.933-40.533-41.813-40.533-72.533v-426.667c0-46.933 38.4-85.333 85.333-85.333h682.667c46.933 0 85.333 38.4 85.333 85.333l-0.427 426.667zM466.773 433.493l-307.2 192 309.333 181.333c26.453 15.787 59.733 15.787 86.187 0l309.333-181.333-307.2-192c-27.733-17.067-62.72-17.067-90.453 0z" />
<glyph unicode="&#xe963;" glyph-name="drag-handle" d="M810.667 576h-597.333c-23.467 0-42.667-19.2-42.667-42.667s19.2-42.667 42.667-42.667h597.333c23.467 0 42.667 19.2 42.667 42.667s-19.2 42.667-42.667 42.667zM213.333 320h597.333c23.467 0 42.667 19.2 42.667 42.667s-19.2 42.667-42.667 42.667h-597.333c-23.467 0-42.667-19.2-42.667-42.667s19.2-42.667 42.667-42.667z" />
<glyph unicode="&#xe964;" glyph-name="drag-indicator" d="M469.333 192c0-46.933-38.4-85.333-85.333-85.333s-85.333 38.4-85.333 85.333c0 46.933 38.4 85.333 85.333 85.333s85.333-38.4 85.333-85.333zM384 533.333c-46.933 0-85.333-38.4-85.333-85.333s38.4-85.333 85.333-85.333c46.933 0 85.333 38.4 85.333 85.333s-38.4 85.333-85.333 85.333zM384 789.333c-46.933 0-85.333-38.4-85.333-85.333s38.4-85.333 85.333-85.333c46.933 0 85.333 38.4 85.333 85.333s-38.4 85.333-85.333 85.333zM640 618.667c46.933 0 85.333 38.4 85.333 85.333s-38.4 85.333-85.333 85.333c-46.933 0-85.333-38.4-85.333-85.333s38.4-85.333 85.333-85.333zM640 533.333c-46.933 0-85.333-38.4-85.333-85.333s38.4-85.333 85.333-85.333c46.933 0 85.333 38.4 85.333 85.333s-38.4 85.333-85.333 85.333zM640 277.333c-46.933 0-85.333-38.4-85.333-85.333s38.4-85.333 85.333-85.333c46.933 0 85.333 38.4 85.333 85.333s-38.4 85.333-85.333 85.333z" />
<glyph unicode="&#xe965;" glyph-name="east" d="M609.707 716.371c-3.955-3.947-7.095-8.636-9.233-13.797-2.142-5.162-3.243-10.695-3.243-16.283s1.101-11.121 3.243-16.282c2.138-5.161 5.278-9.85 9.233-13.798l165.547-165.545h-647.253c-23.467 0-42.667-19.2-42.667-42.667s19.2-42.667 42.667-42.667h647.68l-165.547-165.547c-3.951-3.951-7.083-8.64-9.22-13.803s-3.238-10.692-3.238-16.277c0-5.589 1.101-11.119 3.238-16.282s5.269-9.852 9.22-13.798c3.951-3.951 8.64-7.087 13.803-9.225 5.158-2.138 10.692-3.238 16.277-3.238s11.119 1.101 16.277 3.238c5.163 2.138 9.852 5.274 13.803 9.225l238.507 238.507c3.955 3.947 7.091 8.636 9.233 13.794 2.142 5.163 3.243 10.697 3.243 16.286 0 5.585-1.101 11.119-3.243 16.282s-5.278 9.847-9.233 13.798l-238.933 238.078c-3.947 3.956-8.636 7.093-13.798 9.235-5.158 2.141-10.692 3.243-16.282 3.243s-11.123-1.102-16.282-3.243c-5.163-2.141-9.852-5.279-13.798-9.235z" />
<glyph unicode="&#xe966;" glyph-name="emoji-events" d="M810.667 746.667h-85.333v42.667c0 23.467-19.2 42.667-42.667 42.667h-341.333c-23.467 0-42.667-19.2-42.667-42.667v-42.667h-85.333c-46.933 0-85.333-38.4-85.333-85.333v-42.667c0-108.8 81.92-197.547 187.307-210.773 13.493-31.974 34.569-60.181 61.404-82.185s58.626-37.141 92.623-44.109v-132.267h-128c-23.467 0-42.667-19.2-42.667-42.667s19.2-42.667 42.667-42.667h341.333c23.467 0 42.667 19.2 42.667 42.667s-19.2 42.667-42.667 42.667h-128v132.267c33.997 6.967 65.788 22.106 92.621 44.109 26.837 22.003 47.91 50.21 61.406 82.185 105.387 13.227 187.307 101.973 187.307 210.773v42.667c0 46.933-38.4 85.333-85.333 85.333zM213.333 618.667v42.667h85.333v-162.987c-49.493 17.92-85.333 64.853-85.333 120.32zM810.667 618.667c0-55.467-35.84-102.4-85.333-120.32v162.987h85.333v-42.667z" />
<glyph unicode="&#xe967;" glyph-name="emoji-nature" d="M936.107 751.787c-3.917 11.088-11.209 20.67-20.851 27.404s-21.15 10.281-32.909 10.143h-46.080l-13.227 41.387c-5.973 25.6-29.013 43.947-55.040 43.947s-49.067-18.347-55.040-44.373l-13.227-40.96h-45.653c-24.32 0-46.080-14.933-53.76-37.547-8.107-23.893 1.707-49.92 23.893-63.147l37.12-22.187-17.067-52.907c-9.813-24.747-1.707-53.333 19.2-69.12 9.813-7.253 21.76-11.093 33.28-11.093 13.227 0 26.027 4.693 36.693 13.653l34.56 29.867 34.56-29.867c10.667-8.96 23.467-13.653 36.693-13.653 11.52 0 23.467 3.84 33.28 11.093 21.333 15.787 29.013 44.373 19.2 69.12l-16.64 52.907 37.12 22.187c21.76 13.227 31.573 39.253 23.893 63.147zM768 661.333c-23.467 0-42.667 19.2-42.667 42.667s19.2 42.667 42.667 42.667c23.467 0 42.667-19.2 42.667-42.667s-19.2-42.667-42.667-42.667zM661.333 448h-46.507c-8.141 23.859-21.645 45.53-39.471 63.356-17.822 17.826-39.497 31.328-63.356 39.471v46.507c0 11.947-9.387 21.333-21.333 21.333s-21.333-9.387-21.333-21.333v-37.547c-4.693 0.427-9.813 1.28-14.507 1.28-43.519 0-87.466-16.64-120.746-49.92-6.827-6.827-12.8-14.507-18.347-22.613l-59.733 22.613c-31.973 11.238-67.092 9.378-97.702-5.167s-54.23-40.602-65.711-72.486c-11.52-32-9.813-66.987 5.12-97.707 9.813-20.48 24.747-37.12 42.667-49.493-16.213-57.6-2.56-121.6 42.667-166.827 21.481-21.333 48.275-36.54 77.606-44.041s60.134-7.027 89.221 1.374c12.373-17.92 29.013-32.853 49.493-42.667 17.92-8.533 36.266-12.8 55.039-12.8 14.507 0 29.013 2.56 43.093 7.253 15.902 5.666 30.524 14.417 43.038 25.745 12.51 11.328 22.665 25.015 29.879 40.273 7.211 15.262 11.345 31.795 12.156 48.653 0.815 16.858-1.707 33.711-7.42 49.596l-22.187 58.453c7.68 5.547 15.36 11.52 22.613 18.347 37.12 37.12 52.907 87.040 48.64 135.253h37.547c11.947 0 21.333 9.387 21.333 21.333-0.021 5.764-2.321 11.285-6.396 15.36-4.079 4.079-9.6 6.379-15.364 6.4zM199.254 350.293c-10.667 3.84-19.2 11.52-24.32 21.76s-5.547 21.76-1.707 32.427c8.107 22.187 32.427 33.707 53.76 26.027l134.827-50.773c-49.067-25.6-112.213-47.36-162.56-29.44zM468.907 109.227c-10.667-3.84-22.187-3.413-32.427 1.707-5.060 2.406-9.587 5.794-13.325 9.971-3.736 4.177-6.603 9.054-8.434 14.349-17.92 50.347 3.84 113.067 29.866 162.133l50.347-133.547c7.68-22.187-3.84-46.933-26.027-54.613zM520.533 337.067l-26.027 68.693c0 0.427-0.427 0.853-0.853 1.28l-2.56 5.12c-0.841 1.655-1.839 3.23-2.987 4.693l-7.68 7.68c-1.28 1.28-2.987 2.133-4.693 2.987s-2.987 2.133-5.12 2.56c-0.427 0-0.853 0.427-1.28 0.853l-68.266 25.6c16.191 13.606 36.923 20.595 58.047 19.567s41.079-9.997 55.872-25.114c31.147-31.147 32.853-80.213 5.547-113.92z" />
<glyph unicode="&#xe968;" glyph-name="error" d="M512 874.667c-235.52 0-426.667-191.147-426.667-426.667s191.147-426.667 426.667-426.667c235.52 0 426.667 191.147 426.667 426.667s-191.147 426.667-426.667 426.667zM512 405.333c-23.467 0-42.667 19.2-42.667 42.667v170.667c0 23.467 19.2 42.667 42.667 42.667s42.667-19.2 42.667-42.667v-170.667c0-23.467-19.2-42.667-42.667-42.667zM554.667 234.667h-85.333v85.333h85.333v-85.333z" />
<glyph unicode="&#xe969;" glyph-name="event" d="M682.667 405.333h-128c-23.467 0-42.667-19.2-42.667-42.667v-128c0-23.467 19.2-42.667 42.667-42.667h128c23.467 0 42.667 19.2 42.667 42.667v128c0 23.467-19.2 42.667-42.667 42.667zM682.667 832v-42.667h-341.333v42.667c0 23.467-19.2 42.667-42.667 42.667s-42.667-19.2-42.667-42.667v-42.667h-42.667c-47.36 0-84.907-38.4-84.907-85.333l-0.427-597.333c0-22.63 8.99-44.335 24.994-60.339s37.708-24.994 60.34-24.994h597.333c46.933 0 85.333 38.4 85.333 85.333v597.333c0 46.933-38.4 85.333-85.333 85.333h-42.667v42.667c0 23.467-19.2 42.667-42.667 42.667s-42.667-19.2-42.667-42.667zM768 106.667h-512c-23.467 0-42.667 19.2-42.667 42.667v426.667h597.333v-426.667c0-23.467-19.2-42.667-42.667-42.667z" />
<glyph unicode="&#xe96a;" glyph-name="expand-less" d="M481.707 588.371l-195.841-195.838c-3.95-3.951-7.084-8.64-9.222-13.803s-3.238-10.692-3.238-16.277c0-5.589 1.1-11.119 3.238-16.282s5.271-9.852 9.222-13.798c3.95-3.951 8.64-7.087 13.801-9.225s10.693-3.238 16.279-3.238c5.586 0 11.118 1.101 16.279 3.238s9.851 5.274 13.801 9.225l165.974 165.547 165.547-165.547c3.951-3.951 8.64-7.087 13.798-9.225 5.163-2.138 10.692-3.238 16.282-3.238 5.585 0 11.119 1.101 16.277 3.238 5.163 2.138 9.852 5.274 13.803 9.225 3.951 3.947 7.083 8.636 9.22 13.798s3.238 10.692 3.238 16.282c0 5.585-1.101 11.115-3.238 16.277s-5.269 9.852-9.22 13.803l-195.84 195.838c-3.947 3.956-8.636 7.093-13.798 9.235s-10.697 3.243-16.282 3.243c-5.589 0-11.123-1.102-16.282-3.243-5.163-2.141-9.852-5.279-13.798-9.235z" />
<glyph unicode="&#xe96b;" glyph-name="expand-more" d="M677.547 563.629l-165.547-165.545-165.547 165.545c-3.95 3.951-8.64 7.084-13.801 9.222s-10.693 3.238-16.279 3.238c-5.586 0-11.118-1.1-16.279-3.238s-9.851-5.271-13.801-9.222c-3.95-3.95-7.084-8.64-9.222-13.801s-3.238-10.693-3.238-16.279c0-5.587 1.1-11.117 3.238-16.279s5.271-9.852 9.222-13.798l195.84-195.84c16.64-16.64 43.52-16.64 60.16 0l195.84 195.84c3.955 3.947 7.091 8.636 9.233 13.794 2.142 5.163 3.243 10.697 3.243 16.284s-1.101 11.121-3.243 16.283c-2.142 5.161-5.278 9.85-9.233 13.797-16.64 16.213-43.947 16.64-60.587 0z" />
<glyph unicode="&#xe96c;" glyph-name="explore" d="M512 494.933c-26.027 0-46.933-20.907-46.933-46.933s20.907-46.933 46.933-46.933c26.027 0 46.933 20.907 46.933 46.933s-20.907 46.933-46.933 46.933zM512 874.667c-235.52 0-426.667-191.147-426.667-426.667s191.147-426.667 426.667-426.667c235.52 0 426.667 191.147 426.667 426.667s-191.147 426.667-426.667 426.667zM605.44 354.56l-349.44-162.56 162.56 349.44 349.44 162.56-162.56-349.44z" />
<glyph unicode="&#xe96d;" glyph-name="extension" d="M874.667 490.667h-64v170.667c0 46.933-38.4 85.333-85.333 85.333h-170.667v64c0 28.29-11.238 55.421-31.241 75.425-20.006 20.004-47.138 31.242-75.426 31.242-28.29 0-55.421-11.238-75.425-31.242s-31.242-47.135-31.242-75.425v-64h-170.667c-46.933 0-84.907-38.4-84.907-85.333v-162.133h63.573c63.573 0 115.2-51.627 115.2-115.2s-51.627-115.2-115.2-115.2h-64v-162.133c0-46.933 38.4-85.333 85.333-85.333h162.133v64c0 63.573 51.627 115.2 115.2 115.2s115.2-51.627 115.2-115.2v-64h162.133c46.933 0 85.333 38.4 85.333 85.333v170.667h64c28.288 0 55.42 11.238 75.426 31.241 20.002 20.006 31.241 47.138 31.241 75.426s-11.238 55.42-31.241 75.426c-20.006 20.002-47.138 31.241-75.426 31.241z" />
<glyph unicode="&#xe96e;" glyph-name="face-2" d="M920.371 365.261v1.638c50.79 45.056 83.149 110.592 83.149 183.501 0 135.576-110.182 245.759-245.76 245.759-10.65 0-21.299-0.819-31.949-2.458-21.258 38.037-52.281 69.714-89.866 91.764s-80.372 33.674-123.945 33.674c-43.573 0-86.361-11.624-123.946-33.674s-68.606-53.727-89.865-91.764c-10.65 1.638-21.299 2.458-31.949 2.458-135.578 0-245.76-110.182-245.76-245.759 0-72.909 32.358-138.445 82.739-183.501v-1.638c-25.946-23.028-46.731-51.282-60.99-82.903-14.259-31.625-21.671-65.909-21.749-100.598 0-135.578 110.182-245.76 245.76-245.76 56.934 0 109.363 19.661 151.142 52.429 30.31-7.373 61.85-11.469 94.618-11.469s64.307 4.096 94.618 11.469c41.779-32.768 94.208-52.429 151.142-52.429 135.578 0 245.76 110.182 245.76 245.76 0 72.909-32.358 138.445-83.149 183.501zM512 58.88c-180.634 0-327.68 147.046-327.68 327.68 0 152.371 104.858 280.575 245.76 317.029v-2.048c0-136.806 111.411-248.216 248.218-248.216 51.61 0 100.352 15.974 141.312 44.646 12.698-35.226 20.070-72.499 20.070-111.411 0-180.634-147.046-327.68-327.68-327.68zM389.12 294.4c28.277 0 51.2 22.921 51.2 51.2 0 28.275-22.923 51.2-51.2 51.2s-51.2-22.925-51.2-51.2c0-28.279 22.923-51.2 51.2-51.2zM634.88 294.4c28.279 0 51.2 22.921 51.2 51.2 0 28.275-22.921 51.2-51.2 51.2s-51.2-22.925-51.2-51.2c0-28.279 22.921-51.2 51.2-51.2z" />
<glyph unicode="&#xe96f;" glyph-name="face-3" d="M383.997 352c29.455 0 53.332 23.876 53.332 53.333s-23.876 53.333-53.332 53.333c-29.455 0-53.333-23.876-53.333-53.333s23.878-53.333 53.333-53.333zM639.996 352c29.457 0 53.333 23.876 53.333 53.333s-23.876 53.333-53.333 53.333c-29.453 0-53.333-23.876-53.333-53.333s23.881-53.333 53.333-53.333zM977.489 449.707c-22.187 240.64-224 424.96-465.493 424.96s-443.305-184.32-465.492-424.96l-38.4-420.693c-4.267-49.92 34.987-93.013 85.333-93.013h837.118c50.347 0 89.6 43.093 84.907 93.013l-37.973 420.693zM193.704 570.453c37.12-23.467 80.64-37.12 126.293-37.12 79.36 0 149.332 39.68 191.998 100.267 42.667-60.587 112.64-100.267 192-100.267 45.653 0 89.173 13.653 126.293 37.12 14.507-37.973 23.040-79.36 23.040-122.453 0-188.16-153.173-341.333-341.333-341.333-188.158 0-341.332 153.173-341.332 341.333 0 43.093 8.533 84.48 23.040 122.453z" />
<glyph unicode="&#xe970;" glyph-name="face-4" d="M512 874.667c-40.96 0-80.213-5.973-117.333-16.64-18.966 31.1-45.6 56.809-77.351 74.665s-67.555 27.258-103.982 27.309c-117.76 0-213.333-95.573-213.333-213.333 0-76.8 40.96-143.787 101.973-181.333-10.667-37.12-16.64-76.373-16.64-117.333 0-235.52 191.147-426.667 426.667-426.667s426.667 191.147 426.667 426.667c0 235.52-191.147 426.667-426.667 426.667zM512 106.667c-188.16 0-341.333 153.173-341.333 341.333 0 2.133 0.427 4.267 0.427 6.4 110.933 41.813 199.68 127.573 244.907 236.8 49.724-61.677 115.729-108.196 190.532-134.287 74.807-26.092 155.426-30.713 232.721-13.339 8.96-30.293 14.080-62.293 14.080-95.573 0-188.16-153.173-341.333-341.333-341.333zM384 352c29.455 0 53.333 23.876 53.333 53.333s-23.878 53.333-53.333 53.333c-29.455 0-53.333-23.876-53.333-53.333s23.878-53.333 53.333-53.333zM640 352c29.457 0 53.333 23.876 53.333 53.333s-23.876 53.333-53.333 53.333c-29.457 0-53.333-23.876-53.333-53.333s23.876-53.333 53.333-53.333z" />
<glyph unicode="&#xe971;" glyph-name="face-5" d="M512 874.667c-235.52 0-426.667-191.147-426.667-426.667s191.147-426.667 426.667-426.667c235.52 0 426.667 191.147 426.667 426.667s-191.147 426.667-426.667 426.667zM512 106.667c-188.16 0-341.333 153.173-341.333 341.333 0 47.787 9.813 93.013 27.733 134.4 2.942-3.028 6.723-5.105 10.857-5.962s8.429-0.457 12.333 1.15c3.904 1.607 7.236 4.348 9.567 7.867s3.554 7.657 3.511 11.878c0 10.667-8.107 19.2-18.347 20.907 6.4 11.093 13.653 21.76 20.907 32-1.28-3.413-2.56-6.4-2.56-10.24 0-11.947 9.387-21.333 21.333-21.333s21.333 9.387 21.333 21.333c0 11.947-9.387 21.333-21.333 21.333-5.547 0-10.667-2.133-14.507-5.547 22.187 29.013 49.067 54.613 79.36 75.093-0.894-3.155-1.042-6.474-0.431-9.696s1.964-6.257 3.951-8.865c1.987-2.608 4.554-4.718 7.498-6.161s6.183-2.183 9.462-2.158c5.238-0.011 10.292 1.925 14.183 5.432s6.339 8.334 6.871 13.544c0.532 5.21-0.892 10.433-3.994 14.653s-7.662 7.137-12.794 8.184c6.827 3.84 13.653 7.253 20.907 10.667 3.84-5.973 10.24-9.813 17.493-9.813 11.947 0 21.333 9.387 21.333 21.333 0 1.28-0.427 2.56-0.853 3.84 16.64 5.547 33.707 9.813 51.627 12.8-4.693-4.267-8.107-9.813-8.107-16.64 0-11.947 9.387-21.333 21.333-21.333s21.333 9.387 21.333 21.333c-0.038 4.152-1.263 8.206-3.533 11.683s-5.483 6.234-9.267 7.943c11.093 1.28 22.613 1.707 34.133 1.707s23.040-0.427 34.133-1.707c-7.68-3.413-12.8-10.667-12.8-19.627 0-11.947 9.387-21.333 21.333-21.333s21.333 9.387 21.333 21.333c0 6.827-3.413 12.373-8.107 16.213 17.493-2.987 34.987-7.253 51.627-12.8-0.427-0.853-0.853-2.133-0.853-3.413 0-11.947 9.387-21.333 21.333-21.333 7.253 0 13.653 3.84 17.493 9.813 7.253-3.413 14.080-6.827 20.907-10.667-5.133-1.047-9.69-3.964-12.791-8.184-3.106-4.22-4.527-9.443-3.998-14.653 0.533-5.21 2.982-10.038 6.874-13.544s8.943-5.443 14.182-5.432c11.947 0 21.333 9.387 21.333 21.333 0 2.133-0.427 3.84-1.28 5.547 30.293-20.48 57.173-46.080 79.36-75.093-3.034 2.79-6.818 4.631-10.889 5.296-4.066 0.665-8.239 0.125-12.006-1.553-3.763-1.678-6.955-4.422-9.182-7.892-2.223-3.47-3.383-7.515-3.337-11.637 0-11.947 9.387-21.333 21.333-21.333s21.333 9.387 21.333 21.333c0 3.84-1.28 6.827-2.987 9.813 7.68-10.24 14.507-20.907 20.907-32-9.813-1.28-17.92-9.813-17.92-20.48-0.043-4.221 1.178-8.358 3.511-11.878 2.33-3.52 5.662-6.26 9.566-7.867s8.201-2.008 12.331-1.15c4.134 0.858 7.919 2.935 10.859 5.962 17.92-41.387 27.733-86.613 27.733-134.4 0-188.16-153.173-341.333-341.333-341.333zM384 352c29.455 0 53.333 23.876 53.333 53.333s-23.878 53.333-53.333 53.333c-29.455 0-53.333-23.876-53.333-53.333s23.878-53.333 53.333-53.333zM512 704c11.78 0 21.333 9.551 21.333 21.333s-9.553 21.333-21.333 21.333c-11.78 0-21.333-9.551-21.333-21.333s9.553-21.333 21.333-21.333zM597.333 704c11.78 0 21.333 9.551 21.333 21.333s-9.553 21.333-21.333 21.333c-11.78 0-21.333-9.551-21.333-21.333s9.553-21.333 21.333-21.333zM426.667 704c11.78 0 21.333 9.551 21.333 21.333s-9.553 21.333-21.333 21.333c-11.782 0-21.333-9.551-21.333-21.333s9.551-21.333 21.333-21.333zM725.333 661.333c11.78 0 21.333 9.551 21.333 21.333s-9.553 21.333-21.333 21.333c-11.78 0-21.333-9.551-21.333-21.333s9.553-21.333 21.333-21.333zM384 661.333c11.782 0 21.333 9.551 21.333 21.333s-9.551 21.333-21.333 21.333c-11.782 0-21.333-9.551-21.333-21.333s9.551-21.333 21.333-21.333zM298.667 661.333c11.782 0 21.333 9.551 21.333 21.333s-9.551 21.333-21.333 21.333c-11.782 0-21.333-9.551-21.333-21.333s9.551-21.333 21.333-21.333zM469.333 661.333c11.78 0 21.333 9.551 21.333 21.333s-9.553 21.333-21.333 21.333c-11.78 0-21.333-9.551-21.333-21.333s9.553-21.333 21.333-21.333zM554.667 661.333c11.78 0 21.333 9.551 21.333 21.333s-9.553 21.333-21.333 21.333c-11.78 0-21.333-9.551-21.333-21.333s9.553-21.333 21.333-21.333zM640 661.333c11.78 0 21.333 9.551 21.333 21.333s-9.553 21.333-21.333 21.333c-11.78 0-21.333-9.551-21.333-21.333s9.553-21.333 21.333-21.333zM512 618.667c11.78 0 21.333 9.551 21.333 21.333s-9.553 21.333-21.333 21.333c-11.78 0-21.333-9.551-21.333-21.333s9.553-21.333 21.333-21.333zM597.333 618.667c11.78 0 21.333 9.551 21.333 21.333s-9.553 21.333-21.333 21.333c-11.78 0-21.333-9.551-21.333-21.333s9.553-21.333 21.333-21.333zM682.667 618.667c11.78 0 21.333 9.551 21.333 21.333s-9.553 21.333-21.333 21.333c-11.78 0-21.333-9.551-21.333-21.333s9.553-21.333 21.333-21.333zM426.667 618.667c11.78 0 21.333 9.551 21.333 21.333s-9.553 21.333-21.333 21.333c-11.782 0-21.333-9.551-21.333-21.333s9.551-21.333 21.333-21.333zM341.333 618.667c11.782 0 21.333 9.551 21.333 21.333s-9.551 21.333-21.333 21.333c-11.782 0-21.333-9.551-21.333-21.333s9.551-21.333 21.333-21.333zM384 576c11.782 0 21.333 9.551 21.333 21.333s-9.551 21.333-21.333 21.333c-11.782 0-21.333-9.551-21.333-21.333s9.551-21.333 21.333-21.333zM298.667 576c11.782 0 21.333 9.551 21.333 21.333s-9.551 21.333-21.333 21.333c-11.782 0-21.333-9.551-21.333-21.333s9.551-21.333 21.333-21.333zM469.333 576c11.78 0 21.333 9.551 21.333 21.333s-9.553 21.333-21.333 21.333c-11.78 0-21.333-9.551-21.333-21.333s9.553-21.333 21.333-21.333zM554.667 576c11.78 0 21.333 9.551 21.333 21.333s-9.553 21.333-21.333 21.333c-11.78 0-21.333-9.551-21.333-21.333s9.553-21.333 21.333-21.333zM640 576c11.78 0 21.333 9.551 21.333 21.333s-9.553 21.333-21.333 21.333c-11.78 0-21.333-9.551-21.333-21.333s9.553-21.333 21.333-21.333zM725.333 576c11.78 0 21.333 9.551 21.333 21.333s-9.553 21.333-21.333 21.333c-11.78 0-21.333-9.551-21.333-21.333s9.553-21.333 21.333-21.333zM640 352c29.457 0 53.333 23.876 53.333 53.333s-23.876 53.333-53.333 53.333c-29.457 0-53.333-23.876-53.333-53.333s23.876-53.333 53.333-53.333z" />
<glyph unicode="&#xe972;" glyph-name="face-6" d="M512 874.667c-235.52 0-426.667-191.147-426.667-426.667s191.147-426.667 426.667-426.667c235.52 0 426.667 191.147 426.667 426.667s-191.147 426.667-426.667 426.667zM512 106.667c-188.16 0-341.333 153.173-341.333 341.333v1.28c98.56 9.387 146.347 67.84 185.173 145.493 7.253 14.933 21.76 23.893 38.4 23.893h235.947c16.213 0 30.72-8.96 37.973-23.467 38.4-76.8 84.907-136.107 185.173-145.493v-1.28c0-188.587-153.173-341.76-341.333-341.76zM384 352c29.455 0 53.333 23.876 53.333 53.333s-23.878 53.333-53.333 53.333c-29.455 0-53.333-23.876-53.333-53.333s23.878-53.333 53.333-53.333zM640 352c29.457 0 53.333 23.876 53.333 53.333s-23.876 53.333-53.333 53.333c-29.457 0-53.333-23.876-53.333-53.333s23.876-53.333 53.333-53.333z" />
</font>
</defs>
</svg>
